<svg width="24" height="24" viewBox="0 0 24 24" fill="none" xmlns="http://www.w3.org/2000/svg">
<path d="M12 9L8.5 5.5L12 2L15.5 5.5L12 9ZM1 20V16C1 15.4333 1.196 14.9583 1.588 14.575C1.98 14.1917 2.45067 14 3 14H6.275C6.60833 14 6.925 14.0833 7.225 14.25C7.525 14.4167 7.76667 14.6417 7.95 14.925C8.43333 15.575 9.02933 16.0833 9.738 16.45C10.4467 16.8167 11.2007 17 12 17C12.8167 17 13.5793 16.8167 14.288 16.45C14.9967 16.0833 15.584 15.575 16.05 14.925C16.2667 14.6417 16.521 14.4167 16.813 14.25C17.105 14.0833 17.409 14 17.725 14H21C21.5667 14 22.0417 14.1917 22.425 14.575C22.8083 14.9583 23 15.4333 23 16V20H16V17.725C15.4167 18.1417 14.7873 18.4583 14.112 18.675C13.4367 18.8917 12.7327 19 12 19C11.2833 19 10.5833 18.8873 9.9 18.662C9.21667 18.4367 8.58333 18.116 8 17.7V20H1ZM4 13C3.16667 13 2.45833 12.7083 1.875 12.125C1.29167 11.5417 1 10.8333 1 10C1 9.15 1.29167 8.43733 1.875 7.862C2.45833 7.28667 3.16667 6.99933 4 7C4.85 7 5.56267 7.28767 6.138 7.863C6.71333 8.43833 7.00067 9.15067 7 10C7 10.8333 6.71233 11.5417 6.137 12.125C5.56167 12.7083 4.84933 13 4 13ZM20 13C19.1667 13 18.4583 12.7083 17.875 12.125C17.2917 11.5417 17 10.8333 17 10C17 9.15 17.2917 8.43733 17.875 7.862C18.4583 7.28667 19.1667 6.99933 20 7C20.85 7 21.5627 7.28767 22.138 7.863C22.7133 8.43833 23.0007 9.15067 23 10C23 10.8333 22.7123 11.5417 22.137 12.125C21.5617 12.7083 20.8493 13 20 13Z" fill="#DF2349"/>
</svg>
