<svg width="20" height="20" viewBox="0 0 20 20" fill="none" xmlns="http://www.w3.org/2000/svg">
<g clip-path="url(#clip0_47_6)">
<path d="M17.0712 2.92875C15.1825 1.04 12.6713 0 10 0C7.32875 0 4.8175 1.04 2.92875 2.92875C1.04 4.8175 0 7.32875 0 10C0 12.6713 1.04 15.1825 2.92875 17.0712C4.8175 18.96 7.32875 20 10 20C12.6713 20 15.1825 18.96 17.0712 17.0712C18.96 15.1825 20 12.6713 20 10C20 7.32875 18.96 4.8175 17.0712 2.92875ZM17.5 10C17.5017 11.5574 17.0161 13.0762 16.1112 14.3438L5.65625 3.88875C6.92379 2.98392 8.44264 2.49833 10 2.5C14.135 2.5 17.5 5.865 17.5 10ZM2.5 10C2.49833 8.44264 2.98392 6.92379 3.88875 5.65625L14.3438 16.1112C13.0762 17.0161 11.5574 17.5017 10 17.5C5.865 17.5 2.5 14.135 2.5 10Z" fill="#DF2349"/>
</g>
<defs>
<clipPath id="clip0_47_6">
<rect width="20" height="20" fill="white"/>
</clipPath>
</defs>
</svg>
