<svg width="20" height="20" viewBox="0 0 20 20" fill="none" xmlns="http://www.w3.org/2000/svg">
<path d="M6.57388 1.9875C5.40096 2.3156 4.236 2.67237 3.08003 3.0575C2.97448 3.09221 2.88065 3.1563 2.80923 3.24249C2.73782 3.32868 2.69169 3.4335 2.67609 3.545C1.99383 8.74125 3.57018 12.5325 5.45072 15.03C6.24693 16.098 7.1963 17.0389 8.26723 17.8213C8.69334 18.1262 9.07018 18.3463 9.36698 18.4875C9.51476 18.5588 9.63545 18.6063 9.72782 18.635C9.76821 18.6494 9.80986 18.6598 9.8522 18.6663C9.89404 18.6593 9.93524 18.6489 9.97536 18.635C10.069 18.6063 10.1896 18.5588 10.3374 18.4875C10.633 18.3463 11.0111 18.125 11.4372 17.8213C12.5081 17.0388 13.4575 16.098 14.2537 15.03C16.1342 12.5338 17.7106 8.74125 17.0283 3.545C17.0129 3.43345 16.9668 3.32856 16.8953 3.24235C16.8239 3.15614 16.73 3.09208 16.6244 3.0575C15.8226 2.79125 14.4692 2.3575 13.1305 1.98875C11.7635 1.6125 10.5061 1.33375 9.8522 1.33375C9.19949 1.33375 7.94087 1.6125 6.57388 1.98875V1.9875ZM6.24629 0.7C7.5825 0.33125 9.00245 0 9.8522 0C10.702 0 12.1219 0.33125 13.4581 0.7C14.8251 1.075 16.2032 1.51875 17.0135 1.7875C17.3523 1.90106 17.6527 2.10933 17.8801 2.38838C18.1076 2.66742 18.2528 3.00592 18.2992 3.365C19.0332 8.96125 17.33 13.1088 15.2635 15.8525C14.3872 17.0262 13.3423 18.0598 12.1638 18.9188C11.7563 19.216 11.3245 19.4773 10.8731 19.7C10.5283 19.865 10.1576 20 9.8522 20C9.54678 20 9.17733 19.865 8.83127 19.7C8.37993 19.4773 7.94815 19.216 7.54063 18.9188C6.36209 18.0598 5.3172 17.0262 4.44087 15.8525C2.37437 13.1088 0.671168 8.96125 1.40516 3.365C1.45157 3.00592 1.59684 2.66742 1.82427 2.38838C2.0517 2.10933 2.35207 1.90106 2.69087 1.7875C3.86722 1.39601 5.0527 1.03341 6.24629 0.7Z" fill="#DF2349"/>
<path d="M11.6995 8.12499C11.6997 8.5129 11.5814 8.89132 11.3608 9.20811C11.1402 9.52489 10.8283 9.76444 10.468 9.89374L10.9421 12.3812C10.9594 12.4717 10.9567 12.5649 10.9343 12.6542C10.9119 12.7435 10.8703 12.8267 10.8125 12.8978C10.7547 12.9689 10.6822 13.0261 10.6 13.0654C10.5179 13.1047 10.4282 13.125 10.3374 13.125H9.36698C9.2763 13.1248 9.18676 13.1043 9.10479 13.065C9.02281 13.0256 8.95041 12.9684 8.89275 12.8973C8.8351 12.8263 8.79363 12.7432 8.77129 12.6539C8.74895 12.5647 8.7463 12.4716 8.76353 12.3812L9.23644 9.89374C8.91718 9.77917 8.63509 9.57774 8.42099 9.31145C8.20689 9.04516 8.06903 8.72426 8.02246 8.38382C7.9759 8.04338 8.02242 7.69649 8.15695 7.38108C8.29148 7.06566 8.50884 6.79384 8.78528 6.59533C9.06171 6.39682 9.38659 6.27925 9.7244 6.25547C10.0622 6.23169 10.4 6.30262 10.7008 6.4605C11.0015 6.61838 11.2538 6.85714 11.4299 7.15069C11.6061 7.44424 11.6993 7.78129 11.6995 8.12499Z" fill="#DF2349"/>
</svg>
