<svg width="50" height="50" viewBox="0 0 50 50" fill="none" xmlns="http://www.w3.org/2000/svg">
<circle cx="25" cy="25" r="25" transform="rotate(-180 25 25)" fill="#DF2349"/>
<g clip-path="url(#clip0_8_2358)">
<path d="M23.9427 31.9426C23.6926 32.1926 23.3536 32.333 23 32.333C22.6465 32.333 22.3074 32.1926 22.0573 31.9426L16.0573 25.9426C15.8074 25.6926 15.667 25.3535 15.667 25C15.667 24.6464 15.8074 24.3073 16.0573 24.0573L22.0573 18.0573C22.3088 17.8144 22.6456 17.68 22.9952 17.6831C23.3448 17.6861 23.6792 17.8263 23.9264 18.0735C24.1736 18.3207 24.3139 18.6552 24.3169 19.0048C24.3199 19.3544 24.1855 19.6912 23.9427 19.9426L20.3333 23.6666L33 23.6666C33.3536 23.6666 33.6928 23.8071 33.9428 24.0571C34.1929 24.3072 34.3333 24.6463 34.3333 25C34.3333 25.3536 34.1929 25.6927 33.9428 25.9428C33.6928 26.1928 33.3536 26.3333 33 26.3333L20.3333 26.3333L23.9427 30.0573C24.1926 30.3073 24.3331 30.6464 24.3331 31C24.3331 31.3535 24.1926 31.6926 23.9427 31.9426Z" fill="white"/>
</g>
<defs>
<clipPath id="clip0_8_2358">
<rect width="20" height="20" fill="white" transform="matrix(-1 0 0 -1 35 35)"/>
</clipPath>
</defs>
</svg>
