<svg width="16" height="16" viewBox="0 0 16 16" fill="none" xmlns="http://www.w3.org/2000/svg">
<path fill-rule="evenodd" clip-rule="evenodd" d="M7.99999 0C12.4183 0 16 3.58169 16 8C16 12.4183 12.4183 16 7.99999 16H0.417051C0.0447836 16 -0.138328 15.5484 0.122117 15.288L2.05599 13.3541C-0.784728 10.2007 -0.674328 5.36053 2.3431 2.34311C3.79074 0.895467 5.79075 0 7.99999 0ZM13.067 2.93298C10.2686 0.134578 5.73119 0.134578 2.93279 2.93298C0.129939 5.73582 0.136161 10.2706 2.93279 13.0672C3.09563 13.23 3.09563 13.4942 2.93279 13.6569L1.42381 15.1659H7.99999C11.9577 15.1659 15.1659 11.9577 15.1659 8C15.1659 6.02116 14.3637 4.22969 13.067 2.93298Z" fill="#F5F5F5"/>
</svg>
