<svg width="24" height="24" viewBox="0 0 24 24" fill="none" xmlns="http://www.w3.org/2000/svg">
<path d="M10.2455 2.3999C8.88536 2.39979 7.54886 2.75534 6.36859 3.43126C5.18832 4.10717 4.2053 5.07997 3.51709 6.25311C2.82887 7.42626 2.45938 8.75897 2.44528 10.119C2.43117 11.479 2.77294 12.8191 3.43668 14.0063L2.48148 16.5047C2.40207 16.7124 2.38193 16.938 2.4233 17.1565C2.46466 17.375 2.56592 17.5777 2.71575 17.7419C2.86559 17.9062 3.05813 18.0256 3.27188 18.0869C3.48562 18.1481 3.71218 18.1487 3.92628 18.0887L6.91068 17.2523C7.96782 17.7518 9.12372 18.0072 10.2929 17.9997C11.4621 17.9922 12.6146 17.722 13.6653 17.209C14.7159 16.696 15.6378 15.9533 16.3627 15.036C17.0876 14.1186 17.597 13.0501 17.8533 11.9093C18.1095 10.7685 18.106 9.5847 17.843 8.44546C17.58 7.30621 17.0643 6.24067 16.3339 5.32763C15.6036 4.41459 14.6773 3.67743 13.6237 3.17065C12.57 2.66388 11.4159 2.40047 10.2467 2.3999H10.2455ZM3.64548 10.1999C3.64601 8.76162 4.11636 7.36288 4.98497 6.2165C5.85357 5.07012 7.07288 4.23885 8.45737 3.84919C9.84187 3.45952 11.3158 3.53278 12.6548 4.05782C13.9938 4.58286 15.1247 5.53094 15.8753 6.75781C16.626 7.98467 16.9553 9.42316 16.8132 10.8544C16.6711 12.2857 16.0653 13.6313 15.0881 14.6866C14.1109 15.742 12.8157 16.4492 11.3996 16.7007C9.98344 16.9522 8.52392 16.7342 7.24308 16.0799L7.03428 15.9719L3.60228 16.9331L4.76508 13.8899L4.61148 13.6379C3.97805 12.6031 3.64368 11.4131 3.64548 10.1999ZM13.8011 21.5999C12.6783 21.6011 11.5685 21.3594 10.5479 20.8913C9.52737 20.4231 8.62019 19.7397 7.88868 18.8879C8.57785 19.0746 9.28689 19.1781 10.0007 19.1963C11.1119 19.9812 12.4394 20.4017 13.7999 20.3999C14.8823 20.3999 15.9023 20.1395 16.8023 19.6799L17.0111 19.5719L20.4431 20.5331L19.2803 17.4899L19.4339 17.2379C20.0459 16.2371 20.3999 15.0611 20.3999 13.7999C20.4017 12.4674 19.9983 11.1658 19.2431 10.0679C19.2332 9.35402 19.1385 8.64384 18.9611 7.9523C19.7913 8.68339 20.4562 9.58312 20.9112 10.5915C21.3662 11.5998 21.601 12.6936 21.5999 13.7999C21.5999 15.1811 21.2399 16.4795 20.6099 17.6063L21.5639 20.1047C21.6433 20.3124 21.6634 20.538 21.6221 20.7565C21.5807 20.975 21.4794 21.1777 21.3296 21.3419C21.1798 21.5062 20.9872 21.6256 20.7735 21.6869C20.5597 21.7481 20.3332 21.7487 20.1191 21.6887L17.1347 20.8523C16.1231 21.3323 14.9915 21.5999 13.7987 21.5999H13.8011Z" fill="#808080"/>
</svg>
