<svg width="232" height="34" viewBox="0 0 232 34" fill="none" xmlns="http://www.w3.org/2000/svg">
<path d="M0.59668 14.9258C0.59668 13.5195 0.748047 12.25 1.05078 11.1172C1.36328 9.97461 1.78809 8.95898 2.3252 8.07031C2.8623 7.18164 3.49219 6.41504 4.21484 5.77051C4.9375 5.12598 5.71875 4.59375 6.55859 4.17383C7.39844 3.75391 8.27246 3.44629 9.18066 3.25098C10.0986 3.0459 11.0117 2.94336 11.9199 2.94336C12.75 2.94336 13.5654 3.02148 14.3662 3.17773C15.167 3.32422 15.958 3.53418 16.7393 3.80762C16.9736 3.89551 17.208 3.9834 17.4424 4.07129C17.6865 4.14941 17.9014 4.25195 18.0869 4.37891C18.2822 4.50586 18.4385 4.66699 18.5557 4.8623C18.6729 5.05762 18.7314 5.30664 18.7314 5.60938C18.7314 5.96094 18.6729 6.25391 18.5557 6.48828C18.4482 6.71289 18.3066 6.89355 18.1309 7.03027C17.9551 7.16699 17.7598 7.26465 17.5449 7.32324C17.3398 7.38184 17.1396 7.41113 16.9443 7.41113C16.8076 7.41113 16.6611 7.3916 16.5049 7.35254C16.3486 7.30371 16.1875 7.24512 16.0215 7.17676C15.8555 7.1084 15.6943 7.03027 15.5381 6.94238C15.3818 6.84473 15.2402 6.75195 15.1133 6.66406C14.7617 6.51758 14.4297 6.41016 14.1172 6.3418C13.8145 6.26367 13.5215 6.20996 13.2383 6.18066C12.9551 6.1416 12.6768 6.12207 12.4033 6.12207C12.1299 6.1123 11.8564 6.10742 11.583 6.10742C10.9678 6.10742 10.3525 6.18066 9.7373 6.32715C9.12207 6.46387 8.52637 6.68359 7.9502 6.98633C7.38379 7.2793 6.85156 7.65039 6.35352 8.09961C5.85547 8.54883 5.4209 9.08594 5.0498 9.71094C4.68848 10.3262 4.40039 11.0293 4.18555 11.8203C3.98047 12.6113 3.87793 13.4951 3.87793 14.4717C3.87793 16.0928 4.10742 17.4648 4.56641 18.5879C5.03516 19.7012 5.64062 20.6045 6.38281 21.2979C7.13477 21.9912 7.97949 22.4941 8.91699 22.8066C9.85449 23.1094 10.8018 23.2607 11.7588 23.2607C12.1982 23.2607 12.6279 23.2363 13.0479 23.1875C13.4775 23.1289 13.873 23.0605 14.2344 22.9824C14.6055 22.8945 14.9326 22.8018 15.2158 22.7041C15.499 22.5967 15.7139 22.4893 15.8604 22.3818C16.1533 22.1279 16.4121 21.9375 16.6367 21.8105C16.8613 21.6738 17.1201 21.6055 17.4131 21.6055C17.6377 21.6055 17.8477 21.6299 18.043 21.6787C18.248 21.7275 18.4238 21.8154 18.5703 21.9424C18.7168 22.0596 18.834 22.2158 18.9219 22.4111C19.0098 22.6064 19.0537 22.8506 19.0537 23.1436C19.0537 23.5537 18.9121 23.9297 18.6289 24.2715C18.3555 24.6035 17.9111 24.916 17.2959 25.209V25.1943C17.0908 25.3115 16.7881 25.4434 16.3877 25.5898C15.9971 25.7363 15.5527 25.873 15.0547 26C14.5664 26.1172 14.0488 26.2148 13.502 26.293C12.9551 26.3809 12.418 26.4248 11.8906 26.4248C10.6895 26.4248 9.57617 26.2832 8.55078 26C7.53516 25.707 6.60742 25.3066 5.76758 24.7988C4.9375 24.2812 4.2002 23.666 3.55566 22.9531C2.91113 22.2402 2.36914 21.459 1.92969 20.6094C1.49023 19.7598 1.1582 18.8564 0.933594 17.8994C0.708984 16.9326 0.59668 15.9414 0.59668 14.9258ZM22.5107 17.167C22.5107 15.8975 22.7451 14.7061 23.2139 13.5928C23.6924 12.4697 24.3418 11.4932 25.1621 10.6631C25.9922 9.82324 26.959 9.16406 28.0625 8.68555C29.166 8.19727 30.3477 7.95312 31.6074 7.95312C32.9844 7.95312 34.2295 8.19727 35.3428 8.68555C36.4658 9.16406 37.4229 9.82324 38.2139 10.6631C39.0146 11.4932 39.6299 12.4697 40.0596 13.5928C40.4893 14.7061 40.7041 15.8975 40.7041 17.167C40.7041 18.0947 40.5918 18.9688 40.3672 19.7891C40.1523 20.6094 39.8447 21.3613 39.4443 22.0449C39.0439 22.7285 38.5605 23.3438 37.9941 23.8906C37.4375 24.4277 36.8223 24.8867 36.1484 25.2676C35.4746 25.6387 34.752 25.9219 33.9805 26.1172C33.2188 26.3223 32.4277 26.4248 31.6074 26.4248C30.377 26.4248 29.21 26.2051 28.1064 25.7656C27.0029 25.3164 26.0361 24.6914 25.2061 23.8906C24.376 23.0801 23.7168 22.1084 23.2285 20.9756C22.75 19.833 22.5107 18.5635 22.5107 17.167ZM25.8945 17.167C25.8945 18.0947 26.0264 18.9346 26.29 19.6865C26.5537 20.4385 26.9297 21.083 27.418 21.6201C27.916 22.1475 28.5166 22.5576 29.2197 22.8506C29.9229 23.1338 30.7139 23.2754 31.5928 23.2754C32.374 23.2754 33.1113 23.1436 33.8047 22.8799C34.498 22.6162 35.1035 22.2305 35.6211 21.7227C36.1484 21.2051 36.5635 20.5654 36.8662 19.8037C37.1787 19.042 37.335 18.1631 37.335 17.167C37.335 16.3467 37.2031 15.5703 36.9395 14.8379C36.6855 14.0957 36.3145 13.4512 35.8262 12.9043C35.3379 12.3574 34.7373 11.9229 34.0244 11.6006C33.3115 11.2783 32.501 11.1172 31.5928 11.1172C30.6846 11.1172 29.8789 11.2783 29.1758 11.6006C28.4727 11.9229 27.877 12.3574 27.3887 12.9043C26.9004 13.4512 26.5293 14.0957 26.2754 14.8379C26.0215 15.5703 25.8945 16.3467 25.8945 17.167ZM46.4316 24.9307C46.4316 24.4326 46.4658 23.9443 46.5342 23.4658C46.6123 22.9873 46.6514 22.4795 46.6514 21.9424C46.6514 21.542 46.6465 21.1465 46.6367 20.7559C46.6367 20.3652 46.6318 19.9502 46.6221 19.5107C46.6221 19.0713 46.6172 18.5928 46.6074 18.0752C46.5977 17.5479 46.583 16.9521 46.5635 16.2881C46.5537 15.624 46.5391 14.8721 46.5195 14.0322C46.5 13.1924 46.4805 12.2305 46.4609 11.1465C46.334 11.166 46.1875 11.1855 46.0215 11.2051C45.8652 11.2148 45.665 11.2197 45.4209 11.2197C45.2451 11.2197 45.0645 11.1904 44.8789 11.1318C44.6934 11.0732 44.5273 10.9854 44.3809 10.8682C44.2344 10.7412 44.1123 10.5801 44.0146 10.3848C43.917 10.1797 43.8682 9.93066 43.8682 9.6377C43.8682 9.11035 44.0049 8.71484 44.2783 8.45117C44.5518 8.17773 44.8838 8.04102 45.2744 8.04102C45.4307 8.04102 45.582 8.06055 45.7285 8.09961C45.875 8.13867 46.0312 8.1582 46.1973 8.1582C46.5879 8.1582 46.9736 8.13867 47.3545 8.09961C47.7451 8.06055 48.1553 8.04102 48.585 8.04102C49.0049 8.04102 49.293 8.17285 49.4492 8.43652C49.6152 8.7002 49.6982 9.07129 49.6982 9.5498V9.84277C50.4697 9.19824 51.2852 8.72461 52.1445 8.42188C53.0039 8.10938 53.8047 7.95312 54.5469 7.95312C55.7676 7.95312 56.8516 8.12891 57.7988 8.48047C58.7461 8.83203 59.5518 9.35449 60.2158 10.0479C60.626 9.71582 61.0557 9.41797 61.5049 9.1543C61.9541 8.89062 62.4033 8.6709 62.8525 8.49512C63.3115 8.31934 63.7607 8.1875 64.2002 8.09961C64.6396 8.00195 65.0596 7.95312 65.46 7.95312C66.6904 7.95312 67.8086 8.13867 68.8145 8.50977C69.8203 8.87109 70.6797 9.4082 71.3926 10.1211C72.1152 10.834 72.6719 11.7129 73.0625 12.7578C73.4531 13.793 73.6484 14.9893 73.6484 16.3467C73.6484 16.7764 73.6191 17.2646 73.5605 17.8115C73.5117 18.3486 73.4385 18.9053 73.3408 19.4814C73.2432 20.0479 73.126 20.6094 72.9893 21.166C72.8525 21.7129 72.7061 22.2061 72.5498 22.6455C72.6768 22.6064 72.7793 22.582 72.8574 22.5723C72.9355 22.5625 73.0039 22.5576 73.0625 22.5576C73.4043 22.5576 73.6777 22.6211 73.8828 22.748C74.0879 22.875 74.2441 23.0264 74.3516 23.2021C74.4688 23.3779 74.542 23.5635 74.5713 23.7588C74.6104 23.9443 74.6299 24.1006 74.6299 24.2275C74.6299 24.5303 74.5762 24.7793 74.4688 24.9746C74.3613 25.1602 74.1709 25.3213 73.8975 25.458C73.6338 25.585 73.2725 25.7021 72.8135 25.8096C72.3643 25.917 71.793 26.0439 71.0996 26.1904C70.7969 26.2686 70.5479 26.332 70.3525 26.3809C70.167 26.4297 69.9961 26.4541 69.8398 26.4541C69.5273 26.4541 69.2588 26.4053 69.0342 26.3076C68.8096 26.2197 68.624 26.1025 68.4775 25.9561C68.3408 25.7998 68.2383 25.6191 68.1699 25.4141C68.1016 25.1992 68.0674 24.9746 68.0674 24.7402C68.0674 24.4863 68.1357 24.2031 68.2725 23.8906C68.4092 23.5684 68.5898 23.2803 68.8145 23.0264C69.0391 22.6553 69.2441 22.2061 69.4297 21.6787C69.6152 21.1416 69.7715 20.5703 69.8984 19.9648C70.0352 19.3594 70.1377 18.7441 70.2061 18.1191C70.2744 17.4941 70.3086 16.9033 70.3086 16.3467C70.3086 15.5654 70.2109 14.8525 70.0156 14.208C69.8301 13.5635 69.5322 13.0117 69.1221 12.5527C68.7217 12.0938 68.209 11.7373 67.584 11.4834C66.9688 11.2295 66.2363 11.1025 65.3867 11.1025C64.957 11.1025 64.5713 11.1367 64.2295 11.2051C63.8975 11.2637 63.585 11.3516 63.292 11.4688C63.0088 11.5859 62.7402 11.7324 62.4863 11.9082C62.2324 12.084 61.9785 12.2891 61.7246 12.5234C62.125 13.6172 62.3252 14.8916 62.3252 16.3467C62.3252 16.7861 62.2959 17.2842 62.2373 17.8408C62.1787 18.3975 62.0957 18.9688 61.9883 19.5547C61.8809 20.1406 61.7441 20.7168 61.5781 21.2832C61.4121 21.8496 61.2266 22.3672 61.0215 22.8359C61.1777 22.8066 61.3389 22.7627 61.5049 22.7041C61.6709 22.6357 61.8516 22.6016 62.0469 22.6016C62.3691 22.6016 62.6279 22.665 62.8232 22.792C63.0283 22.9189 63.1797 23.0752 63.2773 23.2607C63.3848 23.4365 63.4531 23.6318 63.4824 23.8467C63.5215 24.0518 63.541 24.2373 63.541 24.4033C63.541 24.7158 63.4775 24.9648 63.3506 25.1504C63.2334 25.3262 63.0771 25.4678 62.8818 25.5752C62.6865 25.6729 62.4619 25.7461 62.208 25.7949C61.9541 25.834 61.6953 25.8682 61.4316 25.8975C61.168 25.9268 60.9092 25.9609 60.6553 26C60.4111 26.0488 60.1914 26.1221 59.9961 26.2197C59.9668 26.2393 59.8984 26.2588 59.791 26.2783C59.6836 26.3076 59.5664 26.332 59.4395 26.3516C59.3223 26.3809 59.2002 26.4053 59.0732 26.4248C58.9561 26.4443 58.8633 26.4541 58.7949 26.4541C58.4727 26.4541 58.1992 26.3955 57.9746 26.2783C57.75 26.1611 57.5645 26.0098 57.418 25.8242C57.2812 25.6387 57.1787 25.4336 57.1104 25.209C57.0518 24.9844 57.0225 24.7646 57.0225 24.5498C57.0225 24.2959 57.0615 24.042 57.1396 23.7881C57.2178 23.5244 57.3252 23.2803 57.4619 23.0557C57.6768 22.665 57.877 22.2012 58.0625 21.6641C58.248 21.1172 58.4043 20.5459 58.5312 19.9502C58.668 19.3447 58.7754 18.7344 58.8535 18.1191C58.9316 17.4941 58.9707 16.9033 58.9707 16.3467C58.9707 15.5654 58.8926 14.8525 58.7363 14.208C58.5898 13.5635 58.3408 13.0117 57.9893 12.5527C57.6377 12.0938 57.1738 11.7373 56.5977 11.4834C56.0312 11.2295 55.3281 11.1025 54.4883 11.1025C53.6582 11.1025 52.8428 11.2832 52.042 11.6445C51.251 11.9961 50.4697 12.5625 49.6982 13.3438C49.6982 13.7832 49.6934 14.3301 49.6836 14.9844C49.6836 15.6289 49.6836 16.3125 49.6836 17.0352C49.6836 17.7578 49.6836 18.4756 49.6836 19.1885C49.6836 19.9014 49.6836 20.541 49.6836 21.1074C49.6934 21.6738 49.6982 22.1328 49.6982 22.4844C49.708 22.8262 49.7178 22.9824 49.7275 22.9531C49.9033 22.9043 50.0449 22.8652 50.1523 22.8359C50.2695 22.7969 50.3623 22.7676 50.4307 22.748C50.5088 22.7285 50.5674 22.7188 50.6064 22.7188C50.6455 22.709 50.6895 22.7041 50.7383 22.7041C51.2656 22.7041 51.666 22.8359 51.9395 23.0996C52.2129 23.3535 52.3496 23.7295 52.3496 24.2275C52.3496 24.5986 52.2764 24.8916 52.1299 25.1064C51.9834 25.3213 51.7979 25.4922 51.5732 25.6191C51.3486 25.7461 51.0947 25.8389 50.8115 25.8975C50.5283 25.9463 50.2549 25.9854 49.9912 26.0146C49.8252 26.0342 49.6543 26.0684 49.4785 26.1172C49.3027 26.166 49.127 26.2148 48.9512 26.2637C48.7754 26.3125 48.5996 26.3564 48.4238 26.3955C48.248 26.4346 48.0869 26.4541 47.9404 26.4541C47.3643 26.4541 46.9688 26.3174 46.7539 26.0439C46.5391 25.7803 46.4316 25.4092 46.4316 24.9307ZM83.7852 5.81445C83.5508 5.92187 83.3066 5.97559 83.0527 5.97559C82.7988 5.96582 82.5645 5.91211 82.3496 5.81445C82.1445 5.70703 81.9639 5.55566 81.8076 5.36035C81.6514 5.16504 81.5537 4.93066 81.5146 4.65723C81.4854 4.47168 81.4902 4.26172 81.5293 4.02734C81.5781 3.7832 81.6367 3.53906 81.7051 3.29492C81.7832 3.04102 81.8516 2.79688 81.9102 2.5625C81.9785 2.31836 82.0225 2.09863 82.042 1.90332C82.0713 1.46387 82.2031 1.09766 82.4375 0.804688C82.6719 0.511719 83.0234 0.331055 83.4922 0.262695C83.834 0.204102 84.1562 0.223633 84.459 0.321289C84.7617 0.418945 84.9863 0.633789 85.1328 0.96582C85.1816 1.07324 85.2207 1.2002 85.25 1.34668C85.2891 1.4834 85.3184 1.60547 85.3379 1.71289C85.3477 1.81055 85.3428 1.93262 85.3232 2.0791C85.3135 2.22559 85.2891 2.38184 85.25 2.54785C85.2109 2.7041 85.1621 2.86523 85.1035 3.03125C85.0547 3.1875 85.0059 3.32422 84.957 3.44141C84.8789 3.60742 84.8252 3.78809 84.7959 3.9834C84.7764 4.16895 84.752 4.33984 84.7227 4.49609C84.6934 4.65234 84.6641 4.79395 84.6348 4.9209C84.6055 5.04785 84.5566 5.16504 84.4883 5.27246C84.4297 5.37988 84.3418 5.47754 84.2246 5.56543C84.1172 5.65332 83.9707 5.73633 83.7852 5.81445ZM81.2803 24.9014C81.2803 24.6572 81.29 24.4521 81.3096 24.2861C81.3389 24.1201 81.3633 23.9395 81.3828 23.7441C81.4121 23.5391 81.4365 23.2998 81.4561 23.0264C81.4854 22.7529 81.5 22.3818 81.5 21.9131C81.5 20.165 81.4951 18.4316 81.4854 16.7129C81.4756 14.9844 81.4512 13.1582 81.4121 11.2344C81.2656 11.2441 81.0996 11.2539 80.9141 11.2637C80.7285 11.2734 80.5332 11.2832 80.3281 11.293C80.1328 11.293 79.9424 11.2979 79.7568 11.3076C79.5713 11.3076 79.4053 11.3076 79.2588 11.3076C79.083 11.3076 78.9023 11.2832 78.7168 11.2344C78.541 11.1758 78.3799 11.083 78.2334 10.9561C78.0869 10.8291 77.9648 10.668 77.8672 10.4727C77.7695 10.2676 77.7207 10.0186 77.7207 9.72559C77.7207 9.20801 77.8574 8.81738 78.1309 8.55371C78.4141 8.28027 78.7461 8.14355 79.127 8.14355C79.498 8.14355 79.8643 8.16309 80.2256 8.20215C80.5967 8.23145 80.958 8.24609 81.3096 8.24609C81.6709 8.24609 82.0322 8.23145 82.3936 8.20215C82.7549 8.16309 83.0967 8.14355 83.4189 8.14355C83.917 8.14355 84.2734 8.27539 84.4883 8.53906C84.7031 8.80273 84.8105 9.16895 84.8105 9.6377C84.8105 10.0381 84.7764 10.4336 84.708 10.8242C84.6396 11.2051 84.6055 11.6152 84.6055 12.0547C84.6055 12.9336 84.6006 13.8174 84.5908 14.7061C84.5811 15.5947 84.5713 16.498 84.5615 17.416C84.5615 18.334 84.5566 19.2715 84.5469 20.2285C84.5469 21.1855 84.5566 22.1719 84.5762 23.1875C84.7324 23.1777 84.874 23.1533 85.001 23.1143C85.1279 23.0752 85.25 23.0361 85.3672 22.9971C85.4844 22.9482 85.6064 22.9092 85.7334 22.8799C85.8701 22.8408 86.0215 22.8213 86.1875 22.8213C86.4414 22.8213 86.6465 22.8506 86.8027 22.9092C86.9688 22.9678 87.1006 23.0508 87.1982 23.1582C87.2959 23.2559 87.3691 23.3828 87.418 23.5391C87.4668 23.6855 87.5107 23.8467 87.5498 24.0225C87.6182 24.4814 87.5059 24.8477 87.2129 25.1211C86.9199 25.3945 86.5195 25.6094 86.0117 25.7656C85.7188 25.8438 85.416 25.9219 85.1035 26C84.8008 26.0781 84.5127 26.1465 84.2393 26.2051C83.9658 26.2734 83.7168 26.3271 83.4922 26.3662C83.2676 26.4053 83.0918 26.4248 82.9648 26.4248C82.3887 26.4248 81.9639 26.2881 81.6904 26.0146C81.417 25.751 81.2803 25.3799 81.2803 24.9014ZM93.0869 24.916C93.0869 24.7402 93.0918 24.5596 93.1016 24.374C93.1211 24.1885 93.1406 24.0078 93.1602 23.832C93.1895 23.5684 93.2188 23.2803 93.248 22.9678C93.2773 22.6553 93.292 22.3037 93.292 21.9131C93.292 21.1514 93.2871 20.4336 93.2773 19.7598C93.2773 19.0762 93.2676 18.373 93.248 17.6504C93.248 17.6309 93.248 17.6016 93.248 17.5625C93.248 17.5137 93.2432 17.4209 93.2334 17.2842C93.2334 17.1475 93.2285 16.9473 93.2188 16.6836C93.2188 16.4199 93.2139 16.0488 93.2041 15.5703C93.1943 15.0918 93.1797 14.4961 93.1602 13.7832C93.1504 13.0605 93.1357 12.1816 93.1162 11.1465C92.9893 11.166 92.8379 11.1855 92.6621 11.2051C92.4961 11.2148 92.2959 11.2197 92.0615 11.2197C91.8857 11.2197 91.7051 11.1904 91.5195 11.1318C91.3438 11.0732 91.1777 10.9854 91.0215 10.8682C90.875 10.7412 90.7529 10.5801 90.6553 10.3848C90.5674 10.1797 90.5234 9.93066 90.5234 9.6377C90.5234 9.11035 90.6553 8.71484 90.9189 8.45117C91.1924 8.17773 91.5244 8.04102 91.915 8.04102C92.0713 8.04102 92.2227 8.06055 92.3691 8.09961C92.5156 8.13867 92.6719 8.1582 92.8379 8.1582C93.0332 8.1582 93.2334 8.15332 93.4385 8.14355C93.6436 8.13379 93.8438 8.11914 94.0391 8.09961C94.2539 8.08008 94.4639 8.06543 94.6689 8.05566C94.8838 8.0459 95.0742 8.04102 95.2402 8.04102C95.6406 8.04102 95.9727 8.17285 96.2363 8.43652C96.5 8.7002 96.6318 9.07129 96.6318 9.5498C96.6318 9.66699 96.627 9.80371 96.6172 9.95996C96.6172 10.1162 96.6074 10.2676 96.5879 10.4141C96.9199 10.0918 97.2959 9.78418 97.7158 9.49121C98.1357 9.19824 98.5898 8.93945 99.0781 8.71484C99.5762 8.48047 100.108 8.29492 100.675 8.1582C101.241 8.02148 101.842 7.95312 102.477 7.95312C103.717 7.95312 104.801 8.1582 105.729 8.56836C106.666 8.96875 107.447 9.55469 108.072 10.3262C108.707 11.0879 109.181 12.0254 109.493 13.1387C109.815 14.252 109.977 15.5166 109.977 16.9326C109.977 17.3623 109.947 17.8115 109.889 18.2803C109.83 18.749 109.747 19.2178 109.64 19.6865C109.542 20.1553 109.42 20.624 109.273 21.0928C109.137 21.5518 108.98 21.9863 108.805 22.3965C109.029 22.3281 109.244 22.2695 109.449 22.2207C109.654 22.1719 109.825 22.1377 109.962 22.1182C111.056 22.0107 111.603 22.5088 111.603 23.6123C111.603 23.749 111.588 23.9004 111.559 24.0664C111.529 24.2227 111.471 24.3789 111.383 24.5352C111.295 24.6816 111.173 24.8232 111.017 24.96C110.86 25.0869 110.66 25.1943 110.416 25.2822L108.834 25.6484C108.346 25.7949 107.95 25.917 107.647 26.0146C107.354 26.1221 107.105 26.2051 106.9 26.2637C106.705 26.332 106.539 26.376 106.402 26.3955C106.266 26.4248 106.114 26.4346 105.948 26.4248C105.714 26.4248 105.509 26.3662 105.333 26.249C105.157 26.1416 105.011 26.0049 104.894 25.8389C104.776 25.6631 104.688 25.4727 104.63 25.2676C104.571 25.0625 104.542 24.8623 104.542 24.667C104.542 24.3545 104.586 24.0371 104.674 23.7148C104.762 23.3926 104.918 23.0996 105.143 22.8359C105.416 22.4844 105.646 22.0889 105.831 21.6494C106.026 21.21 106.183 20.7363 106.3 20.2285C106.417 19.7207 106.5 19.1885 106.549 18.6318C106.607 18.0752 106.637 17.5088 106.637 16.9326C106.637 16.2686 106.563 15.5947 106.417 14.9111C106.28 14.2178 106.041 13.5928 105.699 13.0361C105.367 12.4697 104.923 12.0107 104.366 11.6592C103.819 11.2979 103.131 11.1172 102.301 11.1172C101.725 11.1172 101.158 11.21 100.602 11.3955C100.055 11.5713 99.5273 11.8105 99.0195 12.1133C98.5215 12.4062 98.0527 12.7432 97.6133 13.124C97.1738 13.5049 96.7881 13.8955 96.4561 14.2959C96.4463 14.7354 96.4365 15.1797 96.4268 15.6289C96.4268 16.0684 96.4268 16.5127 96.4268 16.9619C96.4072 17.7236 96.3926 18.4805 96.3828 19.2324C96.373 19.9844 96.3682 20.7461 96.3682 21.5176C96.3682 21.7422 96.3682 21.9717 96.3682 22.2061C96.3682 22.4307 96.3779 22.6699 96.3975 22.9238L96.793 22.8066C96.9004 22.7773 97.0029 22.7529 97.1006 22.7334C97.208 22.7041 97.3008 22.6895 97.3789 22.6895C97.9062 22.6895 98.3066 22.8213 98.5801 23.085C98.8535 23.3389 98.9902 23.7148 98.9902 24.2129C98.9902 24.584 98.917 24.8818 98.7705 25.1064C98.624 25.3213 98.4385 25.4922 98.2139 25.6191C97.9893 25.7363 97.7402 25.8193 97.4668 25.8682C97.2031 25.917 96.9443 25.9561 96.6904 25.9854C96.5537 26.0049 96.4219 26.0195 96.2949 26.0293C96.168 26.0488 96.0605 26.0732 95.9727 26.1025C95.6602 26.1904 95.3916 26.2637 95.167 26.3223C94.9424 26.3906 94.7471 26.4248 94.5811 26.4248C94.0049 26.4248 93.6094 26.293 93.3945 26.0293C93.1895 25.7656 93.0869 25.3945 93.0869 24.916ZM116.246 29.7354C116.246 29.5107 116.28 29.2861 116.349 29.0615C116.427 28.8369 116.529 28.6367 116.656 28.4609C116.793 28.2852 116.954 28.1387 117.14 28.0215C117.335 27.9141 117.545 27.8604 117.77 27.8604C117.936 27.8604 118.136 27.8945 118.37 27.9629C118.614 28.0312 118.814 28.1289 118.971 28.2559C119.215 28.4805 119.474 28.7051 119.747 28.9297C120.03 29.1543 120.348 29.3545 120.699 29.5303C121.051 29.7061 121.446 29.8477 121.886 29.9551C122.335 30.0723 122.857 30.1309 123.453 30.1309C124.039 30.1309 124.645 30.0234 125.27 29.8086C125.904 29.5938 126.48 29.2764 126.998 28.8564C127.525 28.4365 127.955 27.9141 128.287 27.2891C128.629 26.6641 128.8 25.9414 128.8 25.1211C128.8 24.9844 128.795 24.8379 128.785 24.6816C128.775 24.5156 128.771 24.3545 128.771 24.1982C128.517 24.5107 128.219 24.8037 127.877 25.0771C127.535 25.3506 127.135 25.5898 126.676 25.7949C126.217 25.9902 125.685 26.1416 125.079 26.249C124.483 26.3662 123.8 26.4248 123.028 26.4248C121.769 26.4248 120.611 26.1953 119.557 25.7363C118.502 25.2676 117.594 24.623 116.832 23.8027C116.07 22.9727 115.475 21.9961 115.045 20.873C114.615 19.75 114.396 18.5293 114.386 17.2109C114.366 15.8047 114.576 14.5352 115.016 13.4023C115.465 12.2598 116.085 11.2881 116.876 10.4873C117.667 9.67676 118.6 9.05176 119.674 8.6123C120.748 8.17285 121.915 7.95312 123.175 7.95312C124.513 7.95312 125.67 8.14844 126.646 8.53906C127.623 8.92969 128.453 9.50098 129.137 10.2529C129.186 10.0967 129.249 9.94531 129.327 9.79883C129.405 9.64258 129.503 9.50586 129.62 9.38867C129.747 9.27148 129.889 9.17871 130.045 9.11035C130.211 9.03223 130.406 8.99316 130.631 8.99316C130.963 8.99316 131.231 9.03711 131.437 9.125C131.651 9.20312 131.817 9.31543 131.935 9.46191C132.052 9.6084 132.13 9.78418 132.169 9.98926C132.218 10.1846 132.242 10.3994 132.242 10.6338C132.242 10.8486 132.223 11.0635 132.184 11.2783C132.145 11.4834 132.125 11.708 132.125 11.9521C132.125 13.0557 132.12 14.1104 132.11 15.1162C132.11 16.1123 132.101 17.1035 132.081 18.0898C132.062 19.0664 132.047 20.1016 132.037 21.1953C132.027 22.2891 132.022 23.3877 132.022 24.4912C132.022 25.7705 131.881 26.8691 131.598 27.7871C131.314 28.7148 130.938 29.501 130.47 30.1455C130.011 30.7998 129.479 31.3271 128.873 31.7275C128.277 32.1279 127.657 32.4404 127.013 32.665C126.378 32.8896 125.743 33.041 125.108 33.1191C124.474 33.1973 123.893 33.2363 123.365 33.2363C122.877 33.2363 122.364 33.1924 121.827 33.1045C121.29 33.0264 120.758 32.9092 120.23 32.7529C119.703 32.5967 119.195 32.4111 118.707 32.1963C118.229 31.9814 117.804 31.7422 117.433 31.4785C117.071 31.2246 116.783 30.9463 116.568 30.6436C116.354 30.3506 116.246 30.0479 116.246 29.7354ZM117.652 17.2109C117.652 18.0801 117.779 18.8857 118.033 19.6279C118.297 20.3701 118.663 21.0146 119.132 21.5615C119.61 22.0986 120.187 22.5186 120.86 22.8213C121.534 23.124 122.291 23.2754 123.131 23.2754C124.078 23.2754 124.913 23.124 125.636 22.8213C126.358 22.5186 126.964 22.0986 127.452 21.5615C127.94 21.0146 128.312 20.3701 128.565 19.6279C128.819 18.8857 128.946 18.0801 128.946 17.2109C128.946 16.3613 128.839 15.5557 128.624 14.7939C128.409 14.0225 128.072 13.3535 127.613 12.7871C127.164 12.2109 126.583 11.7568 125.87 11.4248C125.167 11.083 124.327 10.9121 123.351 10.9121C122.481 10.9121 121.695 11.0781 120.992 11.4102C120.299 11.7324 119.703 12.1768 119.205 12.7432C118.707 13.3096 118.321 13.9785 118.048 14.75C117.784 15.5117 117.652 16.332 117.652 17.2109ZM148.326 20.7412C148.375 19.9502 148.536 19.3496 148.81 18.9395C149.093 18.5195 149.586 18.3096 150.289 18.3096C150.729 18.3096 151.104 18.4365 151.417 18.6904C151.729 18.9346 151.886 19.2764 151.886 19.7158C151.886 19.9697 151.861 20.2236 151.812 20.4775C151.764 20.7314 151.749 20.9951 151.769 21.2686C151.808 21.6006 151.954 21.9033 152.208 22.1768C152.462 22.4502 152.784 22.6895 153.175 22.8945C153.565 23.0898 154.01 23.2461 154.508 23.3633C155.006 23.4707 155.514 23.5244 156.031 23.5244C156.559 23.5244 157.081 23.4805 157.599 23.3926C158.126 23.2949 158.6 23.1191 159.02 22.8652C159.449 22.6113 159.796 22.2646 160.06 21.8252C160.323 21.3857 160.455 20.8145 160.455 20.1113C160.455 19.6523 160.343 19.2227 160.118 18.8223C159.894 18.4121 159.605 18.041 159.254 17.709C158.902 17.3672 158.512 17.0596 158.082 16.7861C157.662 16.5127 157.257 16.2734 156.866 16.0684C156.31 15.7852 155.738 15.5117 155.152 15.248C154.576 14.9746 154.01 14.6914 153.453 14.3984C152.906 14.0957 152.384 13.7686 151.886 13.417C151.397 13.0557 150.968 12.6357 150.597 12.1572C150.226 11.6787 149.933 11.127 149.718 10.502C149.503 9.86719 149.396 9.13477 149.396 8.30469C149.396 7.37695 149.591 6.57617 149.981 5.90234C150.382 5.22852 150.904 4.67188 151.549 4.23242C152.193 3.79297 152.931 3.4707 153.761 3.26562C154.601 3.05078 155.46 2.94336 156.339 2.94336C157.12 2.94336 157.877 3.01172 158.609 3.14844C159.342 3.28516 159.996 3.50977 160.572 3.82227C161.148 4.125 161.627 4.53516 162.008 5.05273C162.389 5.56055 162.618 6.18555 162.696 6.92773C162.716 7.20117 162.682 7.44531 162.594 7.66016C162.506 7.86523 162.384 8.04102 162.228 8.1875C162.071 8.32422 161.891 8.43164 161.686 8.50977C161.49 8.57813 161.29 8.6123 161.085 8.6123C160.772 8.6123 160.509 8.56348 160.294 8.46582C160.079 8.36816 159.903 8.24609 159.767 8.09961C159.63 7.95312 159.527 7.78711 159.459 7.60156C159.391 7.41602 159.347 7.23535 159.327 7.05957C159.181 6.8252 158.99 6.63477 158.756 6.48828C158.521 6.33203 158.258 6.20996 157.965 6.12207C157.682 6.02441 157.384 5.96094 157.071 5.93164C156.759 5.89258 156.456 5.87305 156.163 5.87305C155.753 5.87305 155.343 5.91699 154.933 6.00488C154.532 6.09277 154.166 6.23438 153.834 6.42969C153.502 6.625 153.233 6.87402 153.028 7.17676C152.823 7.47949 152.721 7.85059 152.721 8.29004C152.721 8.80762 152.843 9.2666 153.087 9.66699C153.331 10.0674 153.639 10.4238 154.01 10.7363C154.381 11.0488 154.791 11.332 155.24 11.5859C155.699 11.8398 156.144 12.0742 156.573 12.2891C157.091 12.5527 157.628 12.8359 158.185 13.1387C158.741 13.4316 159.283 13.7539 159.811 14.1055C160.348 14.4473 160.855 14.8232 161.334 15.2334C161.812 15.6436 162.232 16.1025 162.594 16.6104C162.955 17.1084 163.238 17.6553 163.443 18.251C163.658 18.8467 163.766 19.5059 163.766 20.2285C163.766 21 163.658 21.6885 163.443 22.2939C163.229 22.8994 162.936 23.4316 162.564 23.8906C162.193 24.3496 161.759 24.7402 161.261 25.0625C160.763 25.3848 160.226 25.6484 159.649 25.8535C159.073 26.0586 158.473 26.2051 157.848 26.293C157.232 26.3906 156.617 26.4395 156.002 26.4395C155.484 26.4395 154.928 26.3955 154.332 26.3076C153.746 26.2197 153.165 26.083 152.589 25.8975C152.013 25.7021 151.461 25.458 150.934 25.165C150.416 24.8623 149.957 24.501 149.557 24.0811C149.166 23.6514 148.858 23.1631 148.634 22.6162C148.409 22.0596 148.307 21.4346 148.326 20.7412ZM167.501 17.167C167.501 15.8975 167.735 14.7061 168.204 13.5928C168.683 12.4697 169.332 11.4932 170.152 10.6631C170.982 9.82324 171.949 9.16406 173.053 8.68555C174.156 8.19727 175.338 7.95312 176.598 7.95312C177.975 7.95312 179.22 8.19727 180.333 8.68555C181.456 9.16406 182.413 9.82324 183.204 10.6631C184.005 11.4932 184.62 12.4697 185.05 13.5928C185.479 14.7061 185.694 15.8975 185.694 17.167C185.694 18.0947 185.582 18.9688 185.357 19.7891C185.143 20.6094 184.835 21.3613 184.435 22.0449C184.034 22.7285 183.551 23.3438 182.984 23.8906C182.428 24.4277 181.812 24.8867 181.139 25.2676C180.465 25.6387 179.742 25.9219 178.971 26.1172C178.209 26.3223 177.418 26.4248 176.598 26.4248C175.367 26.4248 174.2 26.2051 173.097 25.7656C171.993 25.3164 171.026 24.6914 170.196 23.8906C169.366 23.0801 168.707 22.1084 168.219 20.9756C167.74 19.833 167.501 18.5635 167.501 17.167ZM170.885 17.167C170.885 18.0947 171.017 18.9346 171.28 19.6865C171.544 20.4385 171.92 21.083 172.408 21.6201C172.906 22.1475 173.507 22.5576 174.21 22.8506C174.913 23.1338 175.704 23.2754 176.583 23.2754C177.364 23.2754 178.102 23.1436 178.795 22.8799C179.488 22.6162 180.094 22.2305 180.611 21.7227C181.139 21.2051 181.554 20.5654 181.856 19.8037C182.169 19.042 182.325 18.1631 182.325 17.167C182.325 16.3467 182.193 15.5703 181.93 14.8379C181.676 14.0957 181.305 13.4512 180.816 12.9043C180.328 12.3574 179.728 11.9229 179.015 11.6006C178.302 11.2783 177.491 11.1172 176.583 11.1172C175.675 11.1172 174.869 11.2783 174.166 11.6006C173.463 11.9229 172.867 12.3574 172.379 12.9043C171.891 13.4512 171.52 14.0957 171.266 14.8379C171.012 15.5703 170.885 16.3467 170.885 17.167ZM188.888 17.167C188.888 15.8975 189.122 14.7061 189.591 13.5928C190.069 12.4697 190.719 11.4932 191.539 10.6631C192.369 9.82324 193.336 9.16406 194.439 8.68555C195.543 8.19727 196.725 7.95312 197.984 7.95312C199.361 7.95312 200.606 8.19727 201.72 8.68555C202.843 9.16406 203.8 9.82324 204.591 10.6631C205.392 11.4932 206.007 12.4697 206.437 13.5928C206.866 14.7061 207.081 15.8975 207.081 17.167C207.081 18.0947 206.969 18.9688 206.744 19.7891C206.529 20.6094 206.222 21.3613 205.821 22.0449C205.421 22.7285 204.938 23.3438 204.371 23.8906C203.814 24.4277 203.199 24.8867 202.525 25.2676C201.852 25.6387 201.129 25.9219 200.357 26.1172C199.596 26.3223 198.805 26.4248 197.984 26.4248C196.754 26.4248 195.587 26.2051 194.483 25.7656C193.38 25.3164 192.413 24.6914 191.583 23.8906C190.753 23.0801 190.094 22.1084 189.605 20.9756C189.127 19.833 188.888 18.5635 188.888 17.167ZM192.271 17.167C192.271 18.0947 192.403 18.9346 192.667 19.6865C192.931 20.4385 193.307 21.083 193.795 21.6201C194.293 22.1475 194.894 22.5576 195.597 22.8506C196.3 23.1338 197.091 23.2754 197.97 23.2754C198.751 23.2754 199.488 23.1436 200.182 22.8799C200.875 22.6162 201.48 22.2305 201.998 21.7227C202.525 21.2051 202.94 20.5654 203.243 19.8037C203.556 19.042 203.712 18.1631 203.712 17.167C203.712 16.3467 203.58 15.5703 203.316 14.8379C203.062 14.0957 202.691 13.4512 202.203 12.9043C201.715 12.3574 201.114 11.9229 200.401 11.6006C199.688 11.2783 198.878 11.1172 197.97 11.1172C197.062 11.1172 196.256 11.2783 195.553 11.6006C194.85 11.9229 194.254 12.3574 193.766 12.9043C193.277 13.4512 192.906 14.0957 192.652 14.8379C192.398 15.5703 192.271 16.3467 192.271 17.167ZM212.823 24.916C212.823 24.7402 212.828 24.5596 212.838 24.374C212.857 24.1885 212.877 24.0078 212.896 23.832C212.926 23.5684 212.955 23.2803 212.984 22.9678C213.014 22.6553 213.028 22.3037 213.028 21.9131C213.028 21.1514 213.023 20.4336 213.014 19.7598C213.014 19.0762 213.004 18.373 212.984 17.6504C212.984 17.6309 212.984 17.6016 212.984 17.5625C212.984 17.5137 212.979 17.4209 212.97 17.2842C212.97 17.1475 212.965 16.9473 212.955 16.6836C212.955 16.4199 212.95 16.0488 212.94 15.5703C212.931 15.0918 212.916 14.4961 212.896 13.7832C212.887 13.0605 212.872 12.1816 212.853 11.1465C212.726 11.166 212.574 11.1855 212.398 11.2051C212.232 11.2148 212.032 11.2197 211.798 11.2197C211.622 11.2197 211.441 11.1904 211.256 11.1318C211.08 11.0732 210.914 10.9854 210.758 10.8682C210.611 10.7412 210.489 10.5801 210.392 10.3848C210.304 10.1797 210.26 9.93066 210.26 9.6377C210.26 9.11035 210.392 8.71484 210.655 8.45117C210.929 8.17773 211.261 8.04102 211.651 8.04102C211.808 8.04102 211.959 8.06055 212.105 8.09961C212.252 8.13867 212.408 8.1582 212.574 8.1582C212.77 8.1582 212.97 8.15332 213.175 8.14355C213.38 8.13379 213.58 8.11914 213.775 8.09961C213.99 8.08008 214.2 8.06543 214.405 8.05566C214.62 8.0459 214.811 8.04102 214.977 8.04102C215.377 8.04102 215.709 8.17285 215.973 8.43652C216.236 8.7002 216.368 9.07129 216.368 9.5498C216.368 9.66699 216.363 9.80371 216.354 9.95996C216.354 10.1162 216.344 10.2676 216.324 10.4141C216.656 10.0918 217.032 9.78418 217.452 9.49121C217.872 9.19824 218.326 8.93945 218.814 8.71484C219.312 8.48047 219.845 8.29492 220.411 8.1582C220.978 8.02148 221.578 7.95312 222.213 7.95312C223.453 7.95312 224.537 8.1582 225.465 8.56836C226.402 8.96875 227.184 9.55469 227.809 10.3262C228.443 11.0879 228.917 12.0254 229.229 13.1387C229.552 14.252 229.713 15.5166 229.713 16.9326C229.713 17.3623 229.684 17.8115 229.625 18.2803C229.566 18.749 229.483 19.2178 229.376 19.6865C229.278 20.1553 229.156 20.624 229.01 21.0928C228.873 21.5518 228.717 21.9863 228.541 22.3965C228.766 22.3281 228.98 22.2695 229.186 22.2207C229.391 22.1719 229.562 22.1377 229.698 22.1182C230.792 22.0107 231.339 22.5088 231.339 23.6123C231.339 23.749 231.324 23.9004 231.295 24.0664C231.266 24.2227 231.207 24.3789 231.119 24.5352C231.031 24.6816 230.909 24.8232 230.753 24.96C230.597 25.0869 230.396 25.1943 230.152 25.2822L228.57 25.6484C228.082 25.7949 227.687 25.917 227.384 26.0146C227.091 26.1221 226.842 26.2051 226.637 26.2637C226.441 26.332 226.275 26.376 226.139 26.3955C226.002 26.4248 225.851 26.4346 225.685 26.4248C225.45 26.4248 225.245 26.3662 225.069 26.249C224.894 26.1416 224.747 26.0049 224.63 25.8389C224.513 25.6631 224.425 25.4727 224.366 25.2676C224.308 25.0625 224.278 24.8623 224.278 24.667C224.278 24.3545 224.322 24.0371 224.41 23.7148C224.498 23.3926 224.654 23.0996 224.879 22.8359C225.152 22.4844 225.382 22.0889 225.567 21.6494C225.763 21.21 225.919 20.7363 226.036 20.2285C226.153 19.7207 226.236 19.1885 226.285 18.6318C226.344 18.0752 226.373 17.5088 226.373 16.9326C226.373 16.2686 226.3 15.5947 226.153 14.9111C226.017 14.2178 225.777 13.5928 225.436 13.0361C225.104 12.4697 224.659 12.0107 224.103 11.6592C223.556 11.2979 222.867 11.1172 222.037 11.1172C221.461 11.1172 220.895 11.21 220.338 11.3955C219.791 11.5713 219.264 11.8105 218.756 12.1133C218.258 12.4062 217.789 12.7432 217.35 13.124C216.91 13.5049 216.524 13.8955 216.192 14.2959C216.183 14.7354 216.173 15.1797 216.163 15.6289C216.163 16.0684 216.163 16.5127 216.163 16.9619C216.144 17.7236 216.129 18.4805 216.119 19.2324C216.109 19.9844 216.104 20.7461 216.104 21.5176C216.104 21.7422 216.104 21.9717 216.104 22.2061C216.104 22.4307 216.114 22.6699 216.134 22.9238L216.529 22.8066C216.637 22.7773 216.739 22.7529 216.837 22.7334C216.944 22.7041 217.037 22.6895 217.115 22.6895C217.643 22.6895 218.043 22.8213 218.316 23.085C218.59 23.3389 218.727 23.7148 218.727 24.2129C218.727 24.584 218.653 24.8818 218.507 25.1064C218.36 25.3213 218.175 25.4922 217.95 25.6191C217.726 25.7363 217.477 25.8193 217.203 25.8682C216.939 25.917 216.681 25.9561 216.427 25.9854C216.29 26.0049 216.158 26.0195 216.031 26.0293C215.904 26.0488 215.797 26.0732 215.709 26.1025C215.396 26.1904 215.128 26.2637 214.903 26.3223C214.679 26.3906 214.483 26.4248 214.317 26.4248C213.741 26.4248 213.346 26.293 213.131 26.0293C212.926 25.7656 212.823 25.3945 212.823 24.916Z" fill="#DF2349"/>
</svg>
