<svg width="21" height="21" viewBox="0 0 21 21" fill="none" xmlns="http://www.w3.org/2000/svg">
<g clip-path="url(#clip0_20_2)">
<path d="M18 0.5H3C1.61929 0.5 0.5 1.61929 0.5 3V18C0.5 19.3807 1.61929 20.5 3 20.5H18C19.3807 20.5 20.5 19.3807 20.5 18V3C20.5 1.61929 19.3807 0.5 18 0.5Z" fill="white" stroke="#D71921"/>
<path d="M15.3093 8.1031L8.33033 15.0821C7.70711 15.7112 5.84331 15.9992 5.41999 15.5817C4.99667 15.1643 5.29652 13.3006 5.91975 12.6715L12.8987 5.69254C13.2209 5.38564 13.6504 5.21687 14.0953 5.22229C14.5404 5.22772 14.9656 5.4069 15.2802 5.72157C15.5949 6.03624 15.774 6.46146 15.7795 6.90643C15.7849 7.35141 15.6162 7.78086 15.3093 8.1031Z" stroke="#D71921" stroke-linecap="round" stroke-linejoin="round"/>
</g>
<defs>
<clipPath id="clip0_20_2">
<rect width="21" height="21" fill="white"/>
</clipPath>
</defs>
</svg>
