<svg width="50" height="50" viewBox="0 0 50 50" fill="none" xmlns="http://www.w3.org/2000/svg">
<circle cx="25" cy="25" r="25" fill="#DF2349"/>
<path d="M26.0573 18.0574C26.3074 17.8074 26.6464 17.667 27 17.667C27.3535 17.667 27.6926 17.8074 27.9427 18.0574L33.9427 24.0574C34.1926 24.3074 34.333 24.6465 34.333 25C34.333 25.3536 34.1926 25.6927 33.9427 25.9427L27.9427 31.9427C27.6912 32.1856 27.3544 32.32 27.0048 32.3169C26.6552 32.3139 26.3208 32.1737 26.0736 31.9265C25.8264 31.6793 25.6861 31.3448 25.6831 30.9952C25.6801 30.6456 25.8144 30.3088 26.0573 30.0574L29.6667 26.3334H17C16.6464 26.3334 16.3072 26.1929 16.0572 25.9429C15.8071 25.6928 15.6667 25.3537 15.6667 25C15.6667 24.6464 15.8071 24.3073 16.0572 24.0572C16.3072 23.8072 16.6464 23.6667 17 23.6667H29.6667L26.0573 19.9427C25.8074 19.6927 25.6669 19.3536 25.6669 19C25.6669 18.6465 25.8074 18.3074 26.0573 18.0574Z" fill="white"/>
</svg>
