<svg width="28" height="28" viewBox="0 0 28 28" fill="none" xmlns="http://www.w3.org/2000/svg">
<path d="M23.3332 12.8333C23.3332 10.358 22.3498 7.98401 20.5995 6.23367C18.8492 4.48333 16.4752 3.5 13.9998 3.5C11.5245 3.5 9.15051 4.48333 7.40017 6.23367C5.64983 7.98401 4.6665 10.358 4.6665 12.8333" stroke="#DF2349" stroke-width="1.875" stroke-linecap="round" stroke-linejoin="round"/>
<path d="M23.3333 21.0002V21.5835C23.3333 22.2024 23.0874 22.7959 22.6498 23.2334C22.2123 23.671 21.6188 23.9169 20.9999 23.9169H16.9166M2.33325 18.0112V15.8225C2.33333 15.3022 2.50732 14.7968 2.82757 14.3868C3.14783 13.9767 3.59596 13.6854 4.10075 13.5592L6.13075 13.0505C6.2339 13.0248 6.34155 13.023 6.44553 13.0451C6.54951 13.0672 6.64708 13.1127 6.73086 13.1782C6.81463 13.2436 6.88239 13.3273 6.92901 13.4228C6.97563 13.5183 6.99988 13.6232 6.99992 13.7295V20.103C7.0001 20.2096 6.97597 20.3147 6.92936 20.4105C6.88275 20.5063 6.81489 20.5902 6.73096 20.6558C6.64702 20.7214 6.54922 20.767 6.44501 20.789C6.34079 20.8111 6.23291 20.8091 6.12959 20.7832L4.09959 20.2757C3.59501 20.1493 3.14714 19.8579 2.82711 19.4479C2.50709 19.0378 2.33327 18.5325 2.33325 18.0124V18.0112ZM25.6666 18.0112V15.8225C25.6665 15.3022 25.4925 14.7968 25.1723 14.3868C24.852 13.9767 24.4039 13.6854 23.8991 13.5592L21.8691 13.0505C21.7659 13.0248 21.6583 13.023 21.5543 13.0451C21.4503 13.0672 21.3528 13.1127 21.269 13.1782C21.1852 13.2436 21.1174 13.3273 21.0708 13.4228C21.0242 13.5183 21 13.6232 20.9999 13.7295V20.103C20.9998 20.2094 21.0239 20.3145 21.0704 20.4102C21.117 20.5058 21.1847 20.5896 21.2685 20.6552C21.3523 20.7208 21.45 20.7664 21.554 20.7886C21.6581 20.8108 21.7658 20.8089 21.8691 20.7832L23.8991 20.2757C24.4039 20.1495 24.852 19.8582 25.1723 19.4481C25.4925 19.0381 25.6665 18.5327 25.6666 18.0124V18.0112Z" stroke="#DF2349" stroke-width="1.875"/>
<path d="M15.75 25.6665H12.25C11.7859 25.6665 11.3408 25.4821 11.0126 25.1539C10.6844 24.8258 10.5 24.3806 10.5 23.9165C10.5 23.4524 10.6844 23.0073 11.0126 22.6791C11.3408 22.3509 11.7859 22.1665 12.25 22.1665H15.75C16.2141 22.1665 16.6592 22.3509 16.9874 22.6791C17.3156 23.0073 17.5 23.4524 17.5 23.9165C17.5 24.3806 17.3156 24.8258 16.9874 25.1539C16.6592 25.4821 16.2141 25.6665 15.75 25.6665Z" stroke="#DF2349" stroke-width="1.875"/>
</svg>
