<svg width="24" height="24" viewBox="0 0 24 24" fill="none" xmlns="http://www.w3.org/2000/svg">
<path d="M13.796 4.13592C13.5629 3.8952 13.2838 3.7038 12.9753 3.57308C12.6667 3.44236 12.3351 3.375 12 3.375C11.6649 3.375 11.3333 3.44236 11.0247 3.57308C10.7162 3.7038 10.4371 3.8952 10.204 4.13592L5.40501 9.09192C5.13001 9.37592 4.94501 9.73593 4.87301 10.1259C4.29029 13.304 4.24735 16.5576 4.746 19.7499L4.922 20.8799C4.978 21.2369 5.286 21.4999 5.647 21.4999H9C9.13261 21.4999 9.25979 21.4472 9.35356 21.3535C9.44733 21.2597 9.5 21.1325 9.5 20.9999V13.9999H14.5V20.9999C14.5 21.1325 14.5527 21.2597 14.6465 21.3535C14.7402 21.4472 14.8674 21.4999 15 21.4999H18.353C18.5278 21.4999 18.6968 21.4374 18.8295 21.3237C18.9623 21.21 19.0501 21.0526 19.077 20.8799L19.254 19.7499C19.7526 16.5576 19.7097 13.304 19.127 10.1259C19.0553 9.7362 18.8699 9.37642 18.594 9.09192L13.796 4.13592Z" fill="#808080"/>
</svg>
