<svg width="24" height="24" viewBox="0 0 24 24" fill="none" xmlns="http://www.w3.org/2000/svg">
<g clip-path="url(#clip0_18_127)">
<path d="M11.9332 11.5333C13.7332 11.5333 15.1332 10.0667 15.1332 8.26665C15.1332 6.46665 13.6665 5.06665 11.8665 5.06665C10.0665 5.06665 8.6665 6.53332 8.6665 8.26665C8.6665 10.0667 10.1332 11.5333 11.9332 11.5333ZM11.8665 6.39998C11.9332 6.39998 11.9332 6.39998 11.8665 6.39998C12.9332 6.39998 13.7998 7.26665 13.7998 8.33332C13.7998 9.39998 12.9332 10.2 11.8665 10.2C10.7998 10.2 9.99984 9.33332 9.99984 8.33332C9.99984 7.26665 10.8665 6.39998 11.8665 6.39998Z" fill="#808080"/>
<path d="M21.8 11.1334C20.5333 10 18.8667 9.40002 17.1333 9.46669H16.6C16.4667 10 16.2667 10.4667 16 10.8667C16.4 10.8 16.7333 10.8 17.1333 10.8C18.4 10.7334 19.6667 11.1334 20.6667 11.8667V16.6667H22V11.3334L21.8 11.1334Z" fill="#808080"/>
<path d="M15.5998 5.20003C15.9332 4.40003 16.8665 4.00003 17.7332 4.33337C18.5332 4.6667 18.9332 5.60003 18.5998 6.4667C18.3332 7.0667 17.7332 7.4667 17.1332 7.4667C16.9998 7.4667 16.7998 7.4667 16.6665 7.40003C16.7332 7.73337 16.7332 8.0667 16.7332 8.33336V8.73337C16.8665 8.73337 16.9998 8.80003 17.1332 8.80003C18.7998 8.80003 20.1332 7.4667 20.1332 5.8667C20.1332 4.20003 18.7998 2.8667 17.1998 2.8667C16.1332 2.8667 15.1998 3.40003 14.6665 4.33337C14.9998 4.53337 15.3332 4.80003 15.5998 5.20003Z" fill="#808080"/>
<path d="M8 10.9333C7.73333 10.5333 7.53333 10.0667 7.4 9.53335H6.86667C5.13333 9.46668 3.46667 10.0667 2.2 11.1333L2 11.3333V16.6667H3.33333V11.8667C4.4 11.1333 5.6 10.7333 6.86667 10.8C7.26667 10.8 7.66667 10.8667 8 10.9333Z" fill="#808080"/>
<path d="M6.86668 8.73336C7.00001 8.73336 7.13334 8.73336 7.26668 8.66669V8.26669C7.26668 7.93336 7.26668 7.60003 7.33334 7.33336C7.20001 7.40002 7.00001 7.40003 6.86668 7.40003C6.00001 7.40003 5.26668 6.66669 5.26668 5.80002C5.26668 4.93336 6.00001 4.20003 6.86668 4.20003C7.53334 4.20003 8.13334 4.60003 8.40001 5.20003C8.66668 4.86669 9.06668 4.53336 9.40001 4.26669C8.53334 2.86669 6.73334 2.40003 5.33334 3.26669C3.93334 4.13336 3.46668 5.93336 4.33334 7.33336C4.86668 8.20003 5.80001 8.73336 6.86668 8.73336Z" fill="#808080"/>
<path d="M17.3998 15.1333L17.2665 14.9333C15.9332 13.4667 14.0665 12.6 12.0665 12.6667C10.0665 12.6 8.13317 13.4667 6.79984 14.9333L6.6665 15.1333V20.2C6.6665 20.8 7.13317 21.3333 7.79984 21.3333H16.3332C16.9332 21.3333 17.4665 20.8 17.4665 20.2V15.1333H17.3998ZM16.0665 20H7.99984V15.6C9.0665 14.5333 10.5332 14 12.0665 14C13.5332 13.9333 14.9998 14.5333 16.0665 15.6V20Z" fill="#808080"/>
</g>
<defs>
<clipPath id="clip0_18_127">
<rect width="24" height="24" fill="white"/>
</clipPath>
</defs>
</svg>
