<svg width="27" height="35" viewBox="0 0 27 35" fill="none" xmlns="http://www.w3.org/2000/svg">
<path d="M8.08162 27.1775C8.38787 26.9981 8.72256 26.8231 9.08568 26.6568C8.77892 27.1142 8.45042 27.5566 8.10131 27.9825C7.48881 28.7196 7.01193 29.1112 6.71224 29.2337C6.68736 29.2442 6.66178 29.253 6.63568 29.26C6.61385 29.2297 6.59481 29.1974 6.57881 29.1637C6.45631 28.9231 6.46068 28.6912 6.66631 28.3762C6.89818 28.0153 7.36412 27.6018 8.08162 27.1775ZM13.4519 23.5746C13.1916 23.6293 12.9335 23.684 12.6732 23.7453C13.0588 22.9898 13.4235 22.2239 13.7669 21.4484C14.1127 22.0892 14.4849 22.7153 14.8826 23.3253C14.4079 23.3953 13.9288 23.4784 13.4519 23.5746ZM18.9754 25.6287C18.6356 25.3547 18.3175 25.0548 18.0238 24.7318C18.5226 24.7428 18.9732 24.78 19.3626 24.85C20.056 24.9746 20.3819 25.1715 20.4957 25.3071C20.5315 25.345 20.5518 25.395 20.5526 25.4471C20.5449 25.6015 20.4998 25.7516 20.4213 25.8846C20.3772 25.9912 20.3064 26.0846 20.2157 26.1559C20.1705 26.1836 20.1173 26.1952 20.0647 26.1887C19.8679 26.1821 19.5004 26.0443 18.9754 25.6287ZM14.1082 15.2468C14.0207 15.7806 13.8719 16.3931 13.6707 17.0603C13.5965 16.8104 13.5316 16.558 13.476 16.3034C13.3097 15.5312 13.2857 14.9253 13.3754 14.5053C13.4585 14.1181 13.616 13.9628 13.8041 13.8862C13.905 13.8417 14.0119 13.8123 14.1213 13.7987C14.1497 13.8643 14.1826 14 14.1913 14.2318C14.2022 14.4987 14.176 14.8378 14.1082 15.249V15.2468Z" fill="#BF0000"/>
<path fill-rule="evenodd" clip-rule="evenodd" d="M4.75 0H16.3284C16.9086 0.000123894 17.4649 0.230673 17.875 0.640938L25.9841 8.75C26.3943 9.16014 26.6249 9.71645 26.625 10.2966V30.625C26.625 31.7853 26.1641 32.8981 25.3436 33.7186C24.5231 34.5391 23.4103 35 22.25 35H4.75C3.58968 35 2.47688 34.5391 1.65641 33.7186C0.835936 32.8981 0.375 31.7853 0.375 30.625V4.375C0.375 3.21468 0.835936 2.10188 1.65641 1.28141C2.47688 0.460936 3.58968 0 4.75 0V0ZM16.7812 3.28125V7.65625C16.7812 8.23641 17.0117 8.79281 17.422 9.20305C17.8322 9.61328 18.3886 9.84375 18.9688 9.84375H23.3438L16.7812 3.28125ZM5.11094 29.8988C5.30781 30.2925 5.61406 30.6491 6.06906 30.8153C6.52188 30.9794 6.97031 30.9028 7.33781 30.7497C8.03344 30.4653 8.72688 29.7959 9.36344 29.0303C10.0919 28.1531 10.8575 27.0025 11.5969 25.7272C13.0243 25.3041 14.486 25.0069 15.9653 24.8391C16.6216 25.6769 17.2997 26.3988 17.9559 26.9172C18.5684 27.3984 19.275 27.7987 19.9991 27.8294C20.3935 27.8489 20.7839 27.7432 21.1147 27.5275C21.4538 27.3066 21.7053 26.9872 21.8891 26.6175C22.0859 26.2216 22.2062 25.8081 22.1909 25.3859C22.1771 24.9697 22.0229 24.5704 21.7534 24.2528C21.2591 23.6622 20.4497 23.3778 19.6534 23.2356C18.6875 23.086 17.7075 23.0493 16.7331 23.1262C15.9103 21.9631 15.1929 20.7288 14.5894 19.4381C15.1363 17.9944 15.5453 16.6294 15.7269 15.5138C15.8056 15.0369 15.8472 14.5819 15.8319 14.1706C15.8292 13.7624 15.7342 13.3601 15.5541 12.9938C15.4503 12.7916 15.3028 12.615 15.1223 12.4769C14.9419 12.3388 14.7329 12.2426 14.5106 12.1953C14.0687 12.1012 13.6138 12.1953 13.1959 12.3637C12.3713 12.6919 11.9359 13.3919 11.7719 14.1641C11.6122 14.9078 11.6844 15.7741 11.8725 16.6491C12.065 17.5372 12.3931 18.5041 12.8131 19.4819C12.1413 21.1527 11.3654 22.7797 10.49 24.3534C9.36265 24.7081 8.27598 25.1811 7.24813 25.7644C6.43875 26.2456 5.71906 26.8144 5.28594 27.4859C4.82656 28.1991 4.68437 29.0478 5.11094 29.8988Z" fill="#BF0000"/>
</svg>
