<svg width="22" height="22" viewBox="0 0 22 22" fill="none" xmlns="http://www.w3.org/2000/svg">
<path d="M2.34851 10.69L10.7727 19.1142C11.8047 20.1462 13.2044 20.726 14.6639 20.726C16.1234 20.726 17.5232 20.1462 18.5552 19.1142C19.5872 18.0822 20.167 16.6825 20.167 15.223C20.167 13.7635 19.5872 12.3637 18.5552 11.3317L10.131 2.90755C9.443 2.21953 8.50985 1.83301 7.53685 1.83301C6.56385 1.83301 5.6307 2.21953 4.94268 2.90755C4.25467 3.59556 3.86814 4.52871 3.86814 5.50171C3.86814 6.47471 4.25467 7.40786 4.94268 8.09588L13.376 16.52C13.5464 16.6904 13.7486 16.8255 13.9711 16.9177C14.1937 17.0099 14.4322 17.0573 14.6731 17.0573C14.914 17.0573 15.1525 17.0099 15.3751 16.9177C15.5976 16.8255 15.7998 16.6904 15.9702 16.52C16.1405 16.3497 16.2756 16.1475 16.3678 15.9249C16.46 15.7024 16.5075 15.4639 16.5075 15.223C16.5075 14.9821 16.46 14.7435 16.3678 14.521C16.2756 14.2984 16.1405 14.0962 15.9702 13.9259L8.18768 6.15255" stroke="#7C7C7C" stroke-width="1.5" stroke-linecap="round" stroke-linejoin="round"/>
</svg>
