<svg width="30" height="30" viewBox="0 0 30 30" fill="none" xmlns="http://www.w3.org/2000/svg">
<circle cx="15" cy="15" r="15" fill="#FA773F"/>
<path d="M23.68 10.12C22.432 10.12 21.424 11.128 21.424 12.376C21.424 12.808 21.544 13.192 21.76 13.552L18.88 15.088L16.36 11.272C16.912 10.84 17.272 10.144 17.272 9.4C17.272 8.08 16.192 7 14.872 7C13.552 7 12.472 8.08 12.472 9.4C12.472 10.144 12.808 10.816 13.36 11.248L10.624 15.064L8.104 13.648C8.344 13.288 8.512 12.856 8.512 12.376C8.512 11.128 7.504 10.12 6.256 10.12C5.008 10.12 4 11.128 4 12.376C4 13.336 4.624 14.176 5.464 14.488L6.472 22.048C6.592 22.912 7.336 23.536 8.2 23.536H21.496C22.36 23.536 23.104 22.888 23.224 22.024L24.256 14.536C25.216 14.272 25.936 13.408 25.936 12.352C25.936 11.128 24.928 10.12 23.68 10.12ZM23.68 12.04C23.872 12.04 24.016 12.184 24.016 12.376C24.016 12.568 23.872 12.712 23.68 12.712C23.488 12.712 23.344 12.568 23.344 12.376C23.344 12.184 23.512 12.04 23.68 12.04ZM14.872 8.92C15.136 8.92 15.352 9.136 15.352 9.4C15.352 9.592 15.232 9.784 15.04 9.856C14.992 9.856 14.944 9.832 14.872 9.832C14.872 9.832 14.872 9.832 14.848 9.832C14.776 9.832 14.728 9.832 14.68 9.856C14.512 9.784 14.368 9.616 14.368 9.4C14.392 9.136 14.608 8.92 14.872 8.92ZM11.68 16.888L14.824 12.472L17.752 16.864C18.016 17.272 18.568 17.416 19 17.176L22.168 15.496L21.712 18.904H8.008L7.552 15.568L10.432 17.2C10.864 17.392 11.416 17.272 11.68 16.888ZM6.256 12.04C6.448 12.04 6.592 12.184 6.592 12.376C6.592 12.568 6.448 12.712 6.256 12.712C6.064 12.712 5.92 12.568 5.92 12.376C5.92 12.184 6.064 12.04 6.256 12.04ZM8.368 21.592L8.272 20.8H21.472L21.376 21.592H8.368Z" fill="#F5F5F5"/>
</svg>
