<svg width="24" height="24" viewBox="0 0 24 24" fill="none" xmlns="http://www.w3.org/2000/svg">
<path d="M19.25 2H4.25C3.65326 2 3.08097 2.23705 2.65901 2.65901C2.23705 3.08097 2 3.65326 2 4.25V19.25C2 19.8467 2.23705 20.419 2.65901 20.841C3.08097 21.2629 3.65326 21.5 4.25 21.5H8.25425C10.4045 20.7027 10.625 18.7003 10.625 16.25V12.2157L9.54575 13.2958C9.3347 13.5068 9.04846 13.6254 8.75 13.6254C8.45154 13.6254 8.1653 13.5068 7.95425 13.2958C7.7432 13.0847 7.62464 12.7985 7.62464 12.5C7.62464 12.2015 7.7432 11.9153 7.95425 11.7043L10.9543 8.70425C11.0587 8.59971 11.1828 8.51678 11.3193 8.46019C11.4559 8.40361 11.6022 8.37449 11.75 8.37449C11.8978 8.37449 12.0441 8.40361 12.1807 8.46019C12.3172 8.51678 12.4413 8.59971 12.5458 8.70425L15.5458 11.7043C15.7568 11.9153 15.8754 12.2015 15.8754 12.5C15.8754 12.7985 15.7568 13.0847 15.5458 13.2958C15.3347 13.5068 15.0485 13.6254 14.75 13.6254C14.4515 13.6254 14.1653 13.5068 13.9542 13.2958L12.875 12.2157V16.25C12.875 17.5317 12.866 19.7442 11.72 21.5H19.25C19.8467 21.5 20.419 21.2629 20.841 20.841C21.2629 20.419 21.5 19.8467 21.5 19.25V4.25C21.5 3.65326 21.2629 3.08097 20.841 2.65901C20.419 2.23705 19.8467 2 19.25 2Z" fill="#808080"/>
</svg>
