<svg width="37" height="37" viewBox="0 0 37 37" fill="none" xmlns="http://www.w3.org/2000/svg">
<circle cx="18.5" cy="18.5" r="18.5" fill="#17AB4B"/>
<path d="M19.7472 19.1805L12.8428 20.3309C12.7634 20.3442 12.689 20.3781 12.6268 20.4293C12.5647 20.4804 12.5172 20.5471 12.489 20.6224L10.1084 27.0006C9.88107 27.5873 10.4943 28.1464 11.0572 27.8641L27.5572 19.6141C27.6712 19.5569 27.7671 19.4692 27.8341 19.3606C27.9011 19.2521 27.9366 19.127 27.9366 18.9995C27.9366 18.8719 27.9011 18.7469 27.8341 18.6383C27.7671 18.5298 27.6712 18.442 27.5572 18.3849L11.0572 10.1349C10.4943 9.85343 9.88107 10.4126 10.1084 10.9984L12.4899 17.3765C12.5181 17.4519 12.5656 17.5185 12.6278 17.5697C12.6899 17.6209 12.7644 17.6548 12.8437 17.668L19.7481 18.8184C19.7911 18.8253 19.8303 18.8473 19.8587 18.8805C19.887 18.9137 19.9025 18.9559 19.9025 18.9995C19.9025 19.0431 19.887 19.0853 19.8587 19.1185C19.8303 19.1516 19.7911 19.1736 19.7481 19.1805H19.7472Z" fill="#F4F4F4"/>
</svg>
