<svg width="359" height="248" viewBox="0 0 359 248" fill="none" xmlns="http://www.w3.org/2000/svg">
<g clip-path="url(#clip0_102_63)">
<path d="M360.002 247.729H0C3.94451 237.669 11.2294 229.135 21.4984 226.604C36.5208 222.905 52.4182 233.075 67.4067 229.251C75.9224 227.08 82.6264 220.757 89.6709 215.504C116.249 195.69 152.667 189.834 184.116 200.322C200.554 205.801 215.533 215.383 232.373 219.455C254.148 224.725 276.919 220.355 299.312 219.635C321.121 218.936 352.369 227.822 360.002 247.729Z" fill="#F3F5FD"/>
<path d="M301.447 172.685C298.875 180.479 289.995 187.405 292.648 193.137C293.657 195.316 294.67 197.595 295.137 199.923C295.439 201.31 295.489 202.741 295.285 204.147C294.329 210.217 288.649 214.249 283.367 217.388C283.041 217.581 282.712 217.778 282.382 217.975C277.378 220.974 272.136 224.426 270.528 229.962C269.636 233.037 270.03 236.325 269.66 239.504C269.309 242.426 268.317 245.235 266.754 247.729H233.025C230.03 244.428 230.279 238.881 232.558 234.99C234.998 230.826 239.118 227.996 242.837 224.917C246.048 222.256 249.18 219.052 250.406 215.145C250.6 214.527 250.744 213.894 250.836 213.252C251.133 211.137 250.972 200.337 254.638 193.688C260.306 183.422 269.499 185.95 272.309 180.158C273.386 177.939 274.315 150.673 292.222 155.71C293.968 156.177 295.601 156.995 297.021 158.113C298.441 159.232 299.618 160.628 300.482 162.216C301.345 163.804 301.875 165.551 302.041 167.351C302.207 169.151 302.005 170.966 301.447 172.685Z" fill="#C1D8ED"/>
<path d="M334.204 215.317C333.69 215.671 333.137 215.965 332.556 216.194C327.724 218.007 314.286 217.806 312.321 222.577C311.396 224.82 311.175 227.296 310.383 229.591C308.586 234.797 303.843 238.7 298.537 240.167C296.628 240.694 294.65 240.939 292.761 241.526C289.111 242.663 286.088 244.951 283.431 247.728H239.87C239.851 244.839 240.561 241.992 241.936 239.451C243.31 236.911 245.304 234.758 247.733 233.193C252.576 230.138 258.694 229.567 263.449 226.376C266.585 224.269 268.84 221.226 270.629 217.862C271.767 215.661 272.772 213.394 273.639 211.073C274.97 207.62 276.361 203.914 279.383 201.775C280.866 200.812 282.509 200.123 284.235 199.741C288.601 198.6 291.957 199.271 295.137 199.922C298.995 200.71 302.597 201.462 307.433 198.893C316.011 194.335 328.552 171.604 341.085 193.201C346.11 201.864 339.176 211.989 334.204 215.317Z" fill="#FF99AC"/>
<path d="M61.0163 172.685C63.5888 180.479 72.4683 187.405 69.8153 193.137C68.8064 195.316 67.7934 197.595 67.3271 199.923C67.0246 201.31 66.9742 202.741 67.1784 204.147C68.1351 210.217 73.8149 214.249 79.0967 217.388C79.4223 217.581 79.752 217.778 80.0816 217.975C85.0861 220.974 90.3277 224.426 91.9356 229.962C92.828 233.037 92.434 236.325 92.8038 239.504C93.1542 242.426 94.1467 245.235 95.7101 247.729H129.439C132.434 244.428 132.185 238.881 129.905 234.99C127.465 230.826 123.345 227.996 119.627 224.917C116.415 222.256 113.284 219.052 112.058 215.145C111.863 214.527 111.719 213.894 111.628 213.252C111.331 211.137 111.491 200.337 107.825 193.688C102.158 183.422 92.9646 185.95 90.1549 180.158C89.0776 177.939 88.1491 150.673 70.2414 155.71C68.4953 156.177 66.8625 156.995 65.4425 158.113C64.0226 159.232 62.8452 160.628 61.9821 162.216C61.119 163.804 60.5883 165.551 60.4223 167.351C60.2562 169.151 60.4583 170.966 61.0163 172.685Z" fill="#C1D8ED"/>
<path d="M28.2583 215.317C28.7725 215.671 29.3254 215.965 29.9064 216.194C34.738 218.007 48.1758 217.806 50.1414 222.577C51.0659 224.82 51.287 227.296 52.0789 229.591C53.8757 234.797 58.6189 238.7 63.9249 240.167C65.8342 240.694 67.8119 240.939 69.7012 241.526C73.351 242.663 76.3738 244.951 79.0308 247.728H122.592C122.611 244.839 121.901 241.992 120.526 239.451C119.152 236.911 117.158 234.758 114.73 233.193C109.886 230.138 103.768 229.567 99.0126 226.376C95.8773 224.269 93.6222 221.226 91.8335 217.862C90.6955 215.661 89.6902 213.394 88.8227 211.073C87.4922 207.62 86.1014 203.914 83.0786 201.775C81.5963 200.812 79.953 200.123 78.2269 199.741C73.8615 198.6 70.5051 199.271 67.3255 199.922C63.4666 200.71 59.865 201.462 55.0293 198.893C46.4514 194.335 33.91 171.604 21.3766 193.201C16.3537 201.864 23.2876 211.989 28.2583 215.317Z" fill="#FF99AC"/>
<path d="M231.776 3.54656H133.134C125.58 3.54656 119.456 9.67012 119.456 17.2239V230.556C119.456 238.11 125.58 244.233 133.134 244.233H231.776C239.33 244.233 245.453 238.11 245.453 230.556V17.2239C245.453 9.67012 239.33 3.54656 231.776 3.54656Z" fill="white"/>
<path d="M231.776 247.78H133.134C128.567 247.775 124.189 245.958 120.961 242.729C117.732 239.5 115.915 235.122 115.91 230.556V17.2243C115.915 12.6579 117.732 8.28005 120.961 5.05104C124.189 1.82203 128.567 0.00553193 133.134 0L231.776 0C236.343 0.00553193 240.721 1.82203 243.949 5.05104C247.178 8.28005 248.995 12.6579 249 17.2243V230.556C248.995 235.122 247.178 239.5 243.949 242.729C240.721 245.958 236.343 247.775 231.776 247.78ZM133.134 7.09352C130.448 7.09629 127.872 8.1645 125.973 10.0638C124.073 11.963 123.005 14.5382 123.002 17.2243V230.556C123.005 233.242 124.074 235.816 125.973 237.715C127.872 239.614 130.446 240.682 133.132 240.686H231.774C234.46 240.682 237.035 239.614 238.934 237.715C240.832 235.816 241.901 233.242 241.904 230.556V17.2243C241.901 14.5388 240.832 11.9642 238.934 10.0653C237.035 8.1663 234.46 7.09802 231.774 7.09473L133.134 7.09352Z" fill="#DEE8F5"/>
<path d="M160.857 3.54656H204.053V11.928C204.053 12.7518 203.891 13.5676 203.576 14.3287C203.26 15.0898 202.798 15.7814 202.216 16.3639C201.633 16.9464 200.941 17.4085 200.18 17.7237C199.419 18.0389 198.603 18.2011 197.78 18.2011H167.13C165.466 18.2011 163.87 17.5401 162.694 16.3636C161.517 15.1871 160.856 13.5914 160.856 11.9276V3.54656H160.857Z" fill="#DEE8F5"/>
<path d="M203.142 55.3586C203.142 59.4501 201.928 63.4497 199.655 66.8515C197.381 70.2532 194.15 72.9045 190.37 74.4699C186.59 76.0353 182.43 76.4445 178.417 75.6459C174.404 74.8473 170.718 72.8767 167.826 69.9832C164.933 67.0898 162.963 63.4035 162.165 59.3905C161.367 55.3775 161.777 51.218 163.343 47.438C164.909 43.6581 167.561 40.4274 170.963 38.1546C174.366 35.8818 178.365 34.6689 182.457 34.6693C185.177 34.659 187.871 35.1871 190.386 36.2232C192.901 37.2594 195.185 38.783 197.108 40.7063C199.031 42.6296 200.554 44.9145 201.59 47.4292C202.625 49.944 203.153 52.6389 203.142 55.3586Z" fill="#C1D8ED"/>
<path d="M182.455 57.4902C186.979 57.4902 190.646 53.823 190.646 49.2993C190.646 44.7756 186.979 41.1084 182.455 41.1084C177.931 41.1084 174.264 44.7756 174.264 49.2993C174.264 53.823 177.931 57.4902 182.455 57.4902Z" fill="white"/>
<path d="M197.362 69.7012C195.432 71.7078 193.118 73.3042 190.556 74.3949C187.995 75.4855 185.24 76.0478 182.456 76.0482C179.672 76.0486 176.917 75.487 174.355 74.397C171.793 73.3071 169.478 71.7113 167.548 69.7052C170.338 63.4707 175.969 59.2098 182.457 59.2098C188.945 59.2098 194.572 63.4662 197.362 69.7012Z" fill="white"/>
<path d="M226.04 90.9612H138.87V109.977H226.04V90.9612Z" fill="#FF99AC"/>
<path d="M226.04 123.828H138.87V142.844H226.04V123.828Z" fill="#C1D8ED"/>
<path d="M287.591 80.9771C287.591 80.9771 284.359 79.5888 284.359 71.0964L277.861 70.4343C277.861 70.4343 279.2 77.9387 276.159 80.6041L287.591 80.9771Z" fill="#E98862"/>
<path d="M287.723 67.5273C287.489 70.1232 286.291 72.6612 284.102 73.673C281.721 74.8516 279.088 75.4297 276.433 75.3568C269.379 75.3568 269.458 59.3111 272.531 55.9418C275.605 52.5725 285.528 53.7338 287.14 58.8123C287.972 61.4411 287.944 65.0568 287.723 67.5273Z" fill="#E98862"/>
<path d="M277.489 66.3797C277.811 66.3797 278.072 66.1189 278.072 65.7972C278.072 65.4756 277.811 65.2148 277.489 65.2148C277.168 65.2148 276.907 65.4756 276.907 65.7972C276.907 66.1189 277.168 66.3797 277.489 66.3797Z" fill="#367CFF"/>
<path d="M278.634 64.6436C278.62 64.6435 278.606 64.6424 278.592 64.6404L277.046 64.3992C277.009 64.3949 276.974 64.3832 276.942 64.3649C276.91 64.3466 276.882 64.3221 276.86 64.2928C276.838 64.2635 276.822 64.2301 276.813 64.1944C276.804 64.1588 276.802 64.1217 276.808 64.0854C276.813 64.049 276.826 64.0142 276.845 63.983C276.865 63.9517 276.89 63.9247 276.92 63.9036C276.95 63.8824 276.984 63.8675 277.02 63.8598C277.056 63.852 277.094 63.8516 277.13 63.8586L278.676 64.0997C278.744 64.1102 278.805 64.146 278.848 64.1999C278.891 64.2537 278.912 64.3218 278.907 64.3904C278.902 64.4591 278.871 64.5233 278.821 64.5703C278.77 64.6173 278.704 64.6436 278.635 64.644L278.634 64.6436Z" fill="#367CFF"/>
<path d="M272.922 68.2693C272.922 68.9242 273.182 69.5523 273.645 70.0154C274.109 70.4785 274.737 70.7386 275.391 70.7386C276.046 70.7386 276.674 70.4785 277.138 70.0154C277.601 69.5523 277.861 68.9242 277.861 68.2693C277.872 67.6254 277.626 67.0035 277.179 66.5405C276.731 66.0774 276.118 65.8111 275.474 65.8001C275.447 65.8001 275.419 65.8001 275.391 65.8001C273.633 65.8865 272.922 66.9055 272.922 68.2693Z" fill="#E98862"/>
<path d="M272.902 62.4613C271.533 62.4506 270.166 62.3354 268.815 62.1168C268.815 62.1168 269.229 51.6966 280.295 52.2907C281.732 52.2251 283.171 52.3101 284.591 52.5444C287.917 53.0541 292.632 56.4547 293.394 64.9652C293.743 68.8695 295.088 72.5499 296.115 74.8801C296.237 75.1537 296.288 75.4532 296.264 75.7515C296.24 76.0498 296.142 76.3375 295.979 76.5884C295.816 76.8394 295.593 77.0457 295.33 77.1886C295.067 77.3315 294.773 77.4065 294.474 77.4069L270.765 77.218C270.485 77.2181 270.209 77.1526 269.958 77.0268C269.708 76.901 269.49 76.7183 269.323 76.4934C269.156 76.2684 269.043 76.0075 268.995 75.7314C268.947 75.4554 268.964 75.1718 269.044 74.9034C270.334 70.6325 272.695 68.0149 272.902 62.4613Z" fill="#0F1011"/>
<path d="M231.265 106.441C231.265 106.441 225.557 104.858 224.737 103.767C223.917 102.677 225.91 99.0046 225.91 99.0046C225.91 99.0046 220.202 96.668 220.751 95.7454C221.4 94.6565 228.527 98.554 228.527 98.554C228.527 98.554 226.977 96.7214 227.735 96.237C228.047 96.0361 228.453 96.2551 229.611 97.5254C230.931 98.9724 233.213 101.026 233.213 101.026L231.265 106.441Z" fill="#E98862"/>
<path d="M259.664 243.381C258.775 235.897 258.775 235.127 258.775 234.874H267.216C267.216 234.849 267.216 234.816 267.216 234.776C267.246 235.401 267.672 239.212 268.049 242.384L259.664 243.381Z" fill="#E98862"/>
<path d="M293.298 244.39C293.298 244.39 293.27 235.648 293.27 234.874H301.711C301.711 235.646 301.739 244.361 301.739 244.361L293.298 244.39Z" fill="#E98862"/>
<path d="M305.525 137.832C305.525 139.03 304.892 143.034 305.91 143.321C306.519 143.492 307.24 140.507 307.24 140.507" fill="#E98862"/>
<path d="M310.327 137.203C310.327 137.203 313.649 145.288 309.86 149.933C309.764 150.051 309.634 150.138 309.487 150.181C309.341 150.224 309.185 150.222 309.039 150.175C308.894 150.128 308.766 150.039 308.673 149.918C308.579 149.797 308.524 149.651 308.515 149.499C308.331 146.367 307.7 139.934 305.635 140.685V135.635" fill="#E98862"/>
<path d="M300.515 189.515C299.7 176.901 298.292 155.742 297.6 143.327H297.714L296.525 123.349L265.944 125.236L265.63 127.379L265.523 127.347C261.938 146.345 260.41 167.355 257.504 186.49C257.3 204.221 257.244 222.776 256.55 240.463L271.423 240.716C271.377 223.438 271.803 205.374 272.313 188.068C274.645 174.502 277.919 159.448 280.548 146.03C282.925 172.17 286.469 214.996 289.098 241.489L303.918 240.237L300.515 189.515Z" fill="#262626"/>
<path d="M283.038 247.654C282.821 247.653 282.606 247.609 282.406 247.526C282.207 247.442 282.025 247.319 281.872 247.165C281.72 247.011 281.599 246.828 281.517 246.628C281.435 246.427 281.393 246.212 281.394 245.995C281.394 245.955 281.396 245.915 281.399 245.875C281.424 245.561 281.537 245.261 281.727 245.009C281.916 244.758 282.173 244.566 282.468 244.456L292.293 241.165C292.483 241.102 292.685 241.081 292.884 241.103C293.083 241.125 293.276 241.19 293.447 241.293C294.798 242.231 296.414 242.71 298.057 242.66C299.337 242.569 300.566 242.12 301.603 241.365C301.694 241.29 301.804 241.243 301.921 241.228C302.038 241.214 302.157 241.233 302.264 241.284C302.37 241.335 302.46 241.414 302.523 241.514C302.586 241.614 302.619 241.729 302.619 241.847V246.652C302.619 246.937 302.505 247.211 302.303 247.413C302.102 247.615 301.828 247.728 301.542 247.728H301.538L283.038 247.654Z" fill="#C1D8ED"/>
<path d="M249.381 247.654C249.164 247.653 248.949 247.609 248.749 247.526C248.549 247.442 248.368 247.319 248.215 247.165C248.063 247.011 247.942 246.828 247.86 246.628C247.778 246.427 247.736 246.212 247.737 245.995C247.737 245.955 247.739 245.915 247.742 245.875C247.767 245.561 247.88 245.261 248.07 245.009C248.259 244.758 248.516 244.566 248.811 244.456L258.636 241.165C258.826 241.102 259.028 241.081 259.227 241.103C259.427 241.125 259.619 241.19 259.791 241.293C261.141 242.231 262.757 242.71 264.4 242.66C265.68 242.569 266.909 242.121 267.946 241.365C268.037 241.29 268.148 241.243 268.265 241.229C268.382 241.214 268.5 241.233 268.607 241.284C268.713 241.335 268.803 241.414 268.866 241.514C268.929 241.614 268.962 241.729 268.962 241.847V246.652C268.962 246.937 268.848 247.211 268.646 247.413C268.444 247.615 268.171 247.728 267.885 247.728H267.881L249.381 247.654Z" fill="#C1D8ED"/>
<path d="M308.478 112.331C308.434 112.035 308.36 111.744 308.256 111.462L299.03 86.374L298.975 86.3945C298.574 85.159 297.881 84.0382 296.956 83.1265C295.12 81.2903 291.94 80.1017 288.066 80.1017C282.301 80.1017 274.426 80.1141 272.812 80.1821C267.881 80.3935 265.576 82.6035 264.634 85.8675L253.104 106.566L233.109 99.1272L230.167 107.039L253.556 115.742C254.501 116.094 255.541 116.096 256.488 115.747C257.434 115.399 258.224 114.722 258.715 113.84L265.149 102.289C265.319 103.931 265.447 105.545 265.465 107.083C265.619 120.134 262.095 122.592 263.832 126.582C265.518 130.451 298.611 132.061 299.053 125.249C299.335 120.917 295.516 117.133 295.516 108.688C295.548 107.084 295.76 105.487 296.148 103.93L299.875 114.062L303.532 138.705L312.202 137.419L308.478 112.331Z" fill="#FF477E"/>
<path d="M182.455 221.054C197.739 221.054 210.13 208.664 210.13 193.379C210.13 178.095 197.739 165.705 182.455 165.705C167.171 165.705 154.78 178.095 154.78 193.379C154.78 208.664 167.171 221.054 182.455 221.054Z" fill="#C1D8ED"/>
<path d="M165.244 181.051C162.07 206.148 182.895 212.989 182.895 212.989C182.895 212.989 202.016 205.713 199.818 181.113C199.818 181.113 188.66 183.463 182.895 175.05C182.895 175.051 178.657 183.205 165.244 181.051Z" fill="white"/>
<path d="M188.327 190.924H187.49V189.056C187.479 187.728 186.943 186.459 186 185.524C185.057 184.59 183.783 184.065 182.455 184.065C181.128 184.065 179.854 184.59 178.911 185.524C177.968 186.459 177.432 187.728 177.42 189.056V190.924H176.584C176.202 190.924 175.836 191.076 175.565 191.346C175.295 191.616 175.143 191.983 175.143 192.365V201.76C175.143 202.142 175.295 202.508 175.565 202.779C175.836 203.049 176.202 203.201 176.584 203.201H188.327C188.71 203.201 189.076 203.049 189.346 202.779C189.617 202.508 189.768 202.142 189.768 201.76V192.365C189.768 192.176 189.731 191.988 189.659 191.814C189.586 191.639 189.48 191.48 189.346 191.346C189.212 191.212 189.053 191.106 188.878 191.034C188.703 190.961 188.516 190.924 188.327 190.924ZM179.057 189.056C179.067 188.161 179.429 187.306 180.065 186.676C180.701 186.047 181.56 185.694 182.455 185.694C183.35 185.694 184.209 186.047 184.845 186.676C185.482 187.306 185.844 188.161 185.854 189.056V190.924H179.057V189.056Z" fill="#FF477E"/>
<path d="M147.492 103.536C149.186 103.536 150.559 102.163 150.559 100.469C150.559 98.7755 149.186 97.4023 147.492 97.4023C145.798 97.4023 144.425 98.7755 144.425 100.469C144.425 102.163 145.798 103.536 147.492 103.536Z" fill="white"/>
<path d="M156.7 103.536C158.394 103.536 159.767 102.163 159.767 100.469C159.767 98.7755 158.394 97.4023 156.7 97.4023C155.006 97.4023 153.633 98.7755 153.633 100.469C153.633 102.163 155.006 103.536 156.7 103.536Z" fill="white"/>
<path d="M165.909 103.536C167.603 103.536 168.976 102.163 168.976 100.469C168.976 98.7755 167.603 97.4023 165.909 97.4023C164.215 97.4023 162.842 98.7755 162.842 100.469C162.842 102.163 164.215 103.536 165.909 103.536Z" fill="white"/>
<path d="M175.118 103.536C176.811 103.536 178.185 102.163 178.185 100.469C178.185 98.7755 176.811 97.4023 175.118 97.4023C173.424 97.4023 172.05 98.7755 172.05 100.469C172.05 102.163 173.424 103.536 175.118 103.536Z" fill="white"/>
<path d="M184.326 103.536C186.02 103.536 187.393 102.163 187.393 100.469C187.393 98.7755 186.02 97.4023 184.326 97.4023C182.632 97.4023 181.259 98.7755 181.259 100.469C181.259 102.163 182.632 103.536 184.326 103.536Z" fill="white"/>
<path d="M193.534 103.536C195.228 103.536 196.601 102.163 196.601 100.469C196.601 98.7755 195.228 97.4023 193.534 97.4023C191.841 97.4023 190.467 98.7755 190.467 100.469C190.467 102.163 191.841 103.536 193.534 103.536Z" fill="white"/>
<path d="M202.414 103.536C204.108 103.536 205.481 102.163 205.481 100.469C205.481 98.7755 204.108 97.4023 202.414 97.4023C200.72 97.4023 199.347 98.7755 199.347 100.469C199.347 102.163 200.72 103.536 202.414 103.536Z" fill="white"/>
<path d="M147.492 136.403C149.186 136.403 150.559 135.03 150.559 133.336C150.559 131.642 149.186 130.269 147.492 130.269C145.798 130.269 144.425 131.642 144.425 133.336C144.425 135.03 145.798 136.403 147.492 136.403Z" fill="white"/>
<path d="M156.7 136.403C158.394 136.403 159.767 135.03 159.767 133.336C159.767 131.642 158.394 130.269 156.7 130.269C155.006 130.269 153.633 131.642 153.633 133.336C153.633 135.03 155.006 136.403 156.7 136.403Z" fill="white"/>
<path d="M165.909 136.403C167.603 136.403 168.976 135.03 168.976 133.336C168.976 131.642 167.603 130.269 165.909 130.269C164.215 130.269 162.842 131.642 162.842 133.336C162.842 135.03 164.215 136.403 165.909 136.403Z" fill="white"/>
<path d="M175.118 136.403C176.811 136.403 178.185 135.03 178.185 133.336C178.185 131.642 176.811 130.269 175.118 130.269C173.424 130.269 172.05 131.642 172.05 133.336C172.05 135.03 173.424 136.403 175.118 136.403Z" fill="white"/>
<path d="M184.326 136.403C186.02 136.403 187.393 135.03 187.393 133.336C187.393 131.642 186.02 130.269 184.326 130.269C182.632 130.269 181.259 131.642 181.259 133.336C181.259 135.03 182.632 136.403 184.326 136.403Z" fill="white"/>
<path d="M193.534 136.403C195.228 136.403 196.601 135.03 196.601 133.336C196.601 131.642 195.228 130.269 193.534 130.269C191.841 130.269 190.467 131.642 190.467 133.336C190.467 135.03 191.841 136.403 193.534 136.403Z" fill="white"/>
</g>
<defs>
<clipPath id="clip0_102_63">
<rect width="360" height="247.78" fill="white"/>
</clipPath>
</defs>
</svg>
