<svg width="20" height="20" viewBox="0 0 20 20" fill="none" xmlns="http://www.w3.org/2000/svg">
<path d="M18.5391 7.64834C18.4745 7.44344 18.3502 7.26252 18.182 7.12886C18.0138 6.99521 17.8095 6.91493 17.5953 6.89834L12.95 6.49678C12.9219 6.49402 12.8951 6.4837 12.8724 6.46691C12.8497 6.45013 12.832 6.42752 12.8211 6.40147L11.0063 2.07647C10.9222 1.87917 10.782 1.71093 10.6031 1.59268C10.4242 1.47442 10.2145 1.41138 10 1.41138C9.78555 1.41138 9.57582 1.47442 9.39691 1.59268C9.218 1.71093 9.0778 1.87917 8.99375 2.07647L7.17891 6.40147C7.16804 6.42752 7.15031 6.45013 7.12761 6.46691C7.10491 6.4837 7.0781 6.49402 7.05 6.49678L2.40469 6.89834C2.19051 6.91493 1.98618 6.99521 1.818 7.12886C1.64982 7.26252 1.52546 7.44344 1.46094 7.64834C1.39261 7.85354 1.38664 8.07438 1.44379 8.28297C1.50094 8.49155 1.61865 8.67851 1.78203 8.82022L5.30625 11.8944C5.32783 11.9136 5.34386 11.9382 5.35266 11.9657C5.36145 11.9932 5.3627 12.0225 5.35625 12.0507L4.29688 16.6218C4.2475 16.8322 4.26158 17.0526 4.33737 17.2551C4.41315 17.4575 4.54722 17.633 4.72266 17.7593C4.89537 17.8867 5.10233 17.9594 5.31679 17.9681C5.53126 17.9767 5.74338 17.9209 5.92578 17.8077L9.91875 15.3858C9.94222 15.3713 9.96928 15.3636 9.99688 15.3636C10.0245 15.3636 10.0515 15.3713 10.075 15.3858L14.068 17.8077C14.2523 17.9205 14.4659 17.9763 14.6818 17.9678C14.8977 17.9594 15.1063 17.8872 15.2812 17.7603C15.4562 17.6334 15.5896 17.4576 15.6647 17.255C15.7398 17.0523 15.7531 16.832 15.7031 16.6218L14.6469 12.0491C14.6404 12.021 14.6417 11.9916 14.6505 11.9641C14.6593 11.9367 14.6753 11.912 14.6969 11.8929L18.2211 8.81865C18.3836 8.67671 18.5006 8.48985 18.5571 8.2816C18.6137 8.07335 18.6074 7.85302 18.5391 7.64834ZM17.6016 8.11084L14.0773 11.1851C13.9272 11.3157 13.8155 11.4849 13.7544 11.6743C13.6933 11.8637 13.685 12.0663 13.7305 12.2601L14.7867 16.8327C14.7945 16.8634 14.7928 16.8958 14.7818 16.9255C14.7708 16.9553 14.751 16.9809 14.725 16.9991C14.7015 17.0179 14.6726 17.0288 14.6426 17.03C14.6125 17.0313 14.5828 17.0229 14.5578 17.0062L10.5648 14.5843C10.3946 14.4808 10.1992 14.4261 10 14.4261C9.80079 14.4261 9.6054 14.4808 9.43516 14.5843L5.44219 17.0062C5.4172 17.0229 5.38751 17.0313 5.35745 17.03C5.32738 17.0288 5.2985 17.0179 5.275 16.9991C5.24905 16.9809 5.22925 16.9553 5.21822 16.9255C5.2072 16.8958 5.20548 16.8634 5.21328 16.8327L6.26953 12.2601C6.31501 12.0663 6.30674 11.8637 6.24561 11.6743C6.18449 11.4849 6.07282 11.3157 5.92266 11.1851L2.39844 8.11084C2.37434 8.09034 2.35703 8.06301 2.3488 8.03246C2.34057 8.00191 2.3418 7.96958 2.35235 7.93975C2.36024 7.91004 2.37734 7.8836 2.40121 7.86423C2.42507 7.84486 2.45447 7.83355 2.48516 7.83193L7.13125 7.43037C7.33016 7.41343 7.52063 7.34237 7.68203 7.2249C7.84343 7.10743 7.9696 6.94803 8.04688 6.76397L9.86172 2.43897C9.87434 2.41212 9.89434 2.38943 9.91938 2.37353C9.94442 2.35763 9.97347 2.34919 10.0031 2.34919C10.0328 2.34919 10.0618 2.35763 10.0869 2.37353C10.1119 2.38943 10.1319 2.41212 10.1445 2.43897L11.9531 6.76397C12.0302 6.94759 12.1559 7.10669 12.3167 7.22413C12.4775 7.34157 12.6673 7.41288 12.8656 7.43037L17.5117 7.83193C17.5424 7.83355 17.5718 7.84486 17.5957 7.86423C17.6195 7.8836 17.6366 7.91004 17.6445 7.93975C17.6554 7.96928 17.6572 8.00141 17.6495 8.03194C17.6418 8.06247 17.6251 8.08997 17.6016 8.11084Z" fill="#E0E0E0"/>
</svg>
